<?xml version="1.0" encoding="utf-8"?>
<!-- Generator: Adobe Illustrator 16.0.0, SVG Export Plug-In . SVG Version: 6.00 Build 0)  -->
<!DOCTYPE svg PUBLIC "-//W3C//DTD SVG 1.1//EN" "http://www.w3.org/Graphics/SVG/1.1/DTD/svg11.dtd">
<svg version="1.1" id="Layer_1" xmlns="http://www.w3.org/2000/svg" xmlns:xlink="http://www.w3.org/1999/xlink" x="0px" y="0px"
	 width="67px" height="101px" viewBox="0 0 67 101" enable-background="new 0 0 67 101" xml:space="preserve">
<polyline fill="#343333" points="1.422,38.664 67,76.271 67,101.13 -0.131,63.369 0.869,38.788 "/>
<polygon opacity="0.25" fill="#020202" points="-0.131,63.357 31.179,55.729 20.594,49.632 "/>
<polygon fill="#FFFFFF" points="67,25.594 67,0 -0.131,38.496 -0.131,63.357 "/>
<g>
	<path fill="#4C4C4C" d="M18.645,46.071l-5.184-9.235l1.278-0.717l4.903,4.504c0.095,0.087,0.215,0.205,0.361,0.352
		c0.147,0.147,0.303,0.306,0.467,0.478c-0.198-0.242-0.376-0.468-0.533-0.68c-0.158-0.21-0.267-0.37-0.326-0.476l-2.95-5.257
		l1.336-0.75l5.183,9.236l-1.335,0.75l-4.602-4.128c-0.021-0.017-0.049-0.042-0.086-0.078c-0.315-0.282-0.574-0.534-0.777-0.756
		c0.233,0.295,0.424,0.542,0.572,0.742c0.147,0.199,0.25,0.348,0.305,0.446l2.71,4.829L18.645,46.071z"/>
	<path fill="#4C4C4C" d="M21.197,35.3c-0.409-0.728-0.531-1.41-0.367-2.045c0.164-0.635,0.596-1.148,1.294-1.541
		c0.66-0.371,1.302-0.452,1.925-0.244c0.623,0.207,1.141,0.677,1.552,1.41l2.655,4.732c0.455,0.81,0.613,1.54,0.479,2.192
		s-0.553,1.176-1.256,1.57c-0.711,0.399-1.375,0.484-1.993,0.258c-0.617-0.228-1.161-0.761-1.632-1.6L21.197,35.3z M26.959,38.727
		l-2.893-5.155c-0.18-0.319-0.376-0.523-0.589-0.614c-0.213-0.09-0.441-0.067-0.684,0.068c-0.243,0.137-0.381,0.319-0.415,0.548
		c-0.034,0.229,0.038,0.504,0.217,0.823l2.893,5.154c0.18,0.319,0.377,0.525,0.592,0.618c0.214,0.092,0.442,0.071,0.686-0.066
		c0.242-0.136,0.38-0.32,0.413-0.551C27.211,39.321,27.139,39.046,26.959,38.727z"/>
	<path fill="#4C4C4C" d="M31.58,38.813l-5.183-9.236l1.897-1.064l3.798,4.596c0.151,0.184,0.304,0.387,0.455,0.61
		c0.149,0.224,0.296,0.461,0.437,0.712c-0.119-0.213-0.23-0.439-0.334-0.678c-0.104-0.238-0.203-0.495-0.302-0.771l-1.991-5.627
		l1.923-1.079l5.183,9.235l-1.335,0.75l-3.272-5.832c-0.093-0.166-0.208-0.396-0.348-0.687c-0.138-0.292-0.287-0.62-0.446-0.984
		c0.048,0.135,0.115,0.322,0.203,0.558c0.163,0.451,0.267,0.743,0.309,0.877l2.277,6.784l-0.709,0.397l-4.556-5.514
		c-0.182-0.223-0.379-0.468-0.593-0.735c-0.214-0.266-0.335-0.413-0.362-0.442c0.207,0.298,0.396,0.58,0.566,0.844
		c0.172,0.266,0.316,0.502,0.434,0.71l3.272,5.832L31.58,38.813z"/>
	<path fill="#4C4C4C" d="M39.639,34.29l-5.184-9.235l1.45-0.814l5.184,9.236L39.639,34.29z"/>
	<path fill="#4C4C4C" d="M43.238,32.271l-5.184-9.236l1.278-0.717l4.904,4.504c0.094,0.088,0.215,0.205,0.361,0.353
		c0.147,0.146,0.303,0.306,0.466,0.478c-0.198-0.242-0.375-0.468-0.533-0.68c-0.157-0.211-0.266-0.37-0.326-0.477l-2.949-5.257
		l1.335-0.749l5.184,9.235l-1.336,0.75l-4.601-4.128c-0.021-0.017-0.049-0.042-0.086-0.078c-0.316-0.282-0.575-0.534-0.777-0.756
		c0.233,0.295,0.424,0.542,0.571,0.742c0.148,0.199,0.25,0.348,0.306,0.445l2.709,4.829L43.238,32.271z"/>
	<path fill="#4C4C4C" d="M49.949,28.504l-5.184-9.236l3.719-2.087l0.749,1.335l-2.294,1.287l1.359,2.421l1.652-0.927l0.749,1.335
		l-1.652,0.927l1.548,2.76l2.294-1.287l0.777,1.386L49.949,28.504z"/>
	<path fill="#4C4C4C" d="M55.484,25.398l-5.183-9.236l3.718-2.087l0.75,1.335l-2.294,1.287l1.358,2.421l1.652-0.927l0.749,1.335
		l-1.652,0.927l1.549,2.76l2.293-1.287l0.778,1.386L55.484,25.398z"/>
</g>
<g>
	<path fill="#FFFFFF" d="M20.754,56.405l1.391,0.785l-2.232,5.939c-0.141,0.38-0.288,0.73-0.438,1.052
		c-0.151,0.321-0.314,0.64-0.492,0.955l-0.094,0.165c0.24-0.396,0.475-0.765,0.703-1.104c0.228-0.34,0.438-0.638,0.633-0.893
		l3.904-4.996l1.396,0.788L18.69,67.4l-1.486-0.838L20.754,56.405z"/>
	<path fill="#FFFFFF" d="M25.588,61.941c0.41-0.728,0.929-1.187,1.559-1.375c0.627-0.189,1.29-0.088,1.987,0.306
		c0.659,0.372,1.063,0.879,1.208,1.519c0.146,0.64,0.014,1.325-0.399,2.058l-2.666,4.727c-0.456,0.809-0.998,1.324-1.625,1.548
		c-0.628,0.223-1.293,0.137-1.994-0.259c-0.711-0.401-1.129-0.924-1.255-1.57c-0.126-0.646,0.047-1.388,0.52-2.226L25.588,61.941z
		 M25.65,68.646l2.903-5.148c0.18-0.319,0.253-0.594,0.22-0.822c-0.033-0.229-0.171-0.412-0.414-0.549
		c-0.243-0.137-0.47-0.16-0.684-0.07s-0.41,0.294-0.59,0.613l-2.903,5.148c-0.18,0.318-0.254,0.594-0.222,0.824
		c0.032,0.231,0.169,0.416,0.412,0.553c0.242,0.137,0.471,0.159,0.685,0.066C25.272,69.169,25.47,68.964,25.65,68.646z"/>
	<path fill="#FFFFFF" d="M31.486,64.218l0.752-1.334l4.376,2.469l-0.753,1.334l-1.479-0.836l-4.451,7.892l-1.423-0.803l4.451-7.891
		L31.486,64.218z"/>
	<path fill="#FFFFFF" d="M32.657,75.279l5.203-9.225l3.714,2.095l-0.752,1.334l-2.291-1.292l-1.363,2.418l1.65,0.931l-0.752,1.333
		l-1.65-0.931l-1.555,2.756l2.29,1.292l-0.78,1.384L32.657,75.279z"/>
	<path fill="#FFFFFF" d="M38.26,78.44l3.469-6.15l2.471,1.395l-0.502,0.889l-1.522-0.859l-0.909,1.612l1.098,0.619l-0.502,0.889
		l-1.097-0.618l-1.558,2.76L38.26,78.44z"/>
	<path fill="#FFFFFF" d="M44.201,75.558c0.273-0.484,0.619-0.79,1.038-0.916c0.419-0.127,0.86-0.059,1.325,0.203
		c0.439,0.248,0.708,0.586,0.806,1.013s0.009,0.884-0.267,1.372l-1.777,3.15c-0.304,0.539-0.665,0.883-1.084,1.031
		c-0.418,0.15-0.861,0.092-1.329-0.172c-0.474-0.268-0.752-0.616-0.836-1.046c-0.085-0.431,0.031-0.926,0.346-1.484L44.201,75.558z
		 M44.242,80.026l1.936-3.432c0.12-0.213,0.169-0.396,0.146-0.549c-0.022-0.152-0.114-0.274-0.276-0.365
		c-0.161-0.092-0.313-0.106-0.455-0.047c-0.143,0.061-0.273,0.196-0.394,0.409l-1.936,3.432c-0.12,0.213-0.17,0.396-0.148,0.55
		c0.022,0.154,0.113,0.277,0.275,0.368c0.161,0.092,0.313,0.106,0.457,0.045C43.99,80.377,44.122,80.239,44.242,80.026z"/>
	<path fill="#FFFFFF" d="M48.191,80.635l-1.459,2.585l-0.948-0.535l3.469-6.149l1.391,0.784c0.521,0.295,0.819,0.648,0.894,1.06
		c0.074,0.412-0.064,0.93-0.416,1.554c-0.218,0.385-0.44,0.671-0.669,0.856c-0.228,0.185-0.489,0.292-0.785,0.319l-0.915,3.251
		l-0.982-0.554l0.872-2.917L48.191,80.635z M49.699,77.959l-1.007,1.786l0.374,0.211c0.219,0.123,0.407,0.143,0.566,0.06
		c0.16-0.084,0.34-0.305,0.542-0.662c0.183-0.323,0.263-0.571,0.244-0.745c-0.021-0.174-0.147-0.326-0.379-0.457L49.699,77.959z"/>
	<path fill="#FFFFFF" d="M54.199,79.325l0.969,0.547l-2.687,4.764c-0.101,0.179-0.135,0.347-0.104,0.505
		c0.033,0.159,0.124,0.28,0.274,0.365s0.297,0.099,0.441,0.042c0.145-0.058,0.268-0.176,0.37-0.357l2.687-4.764l0.966,0.545
		l-2.593,4.597c-0.306,0.542-0.667,0.887-1.08,1.036c-0.416,0.148-0.857,0.092-1.325-0.172c-0.474-0.268-0.753-0.617-0.84-1.052
		c-0.085-0.433,0.028-0.928,0.342-1.483L54.199,79.325z"/>
	<path fill="#FFFFFF" d="M55.637,86.186l0.982,0.375c-0.158,0.321-0.229,0.586-0.211,0.792c0.018,0.206,0.127,0.365,0.325,0.478
		c0.173,0.098,0.344,0.122,0.513,0.073c0.17-0.048,0.305-0.161,0.405-0.34c0.181-0.32,0.159-0.879-0.065-1.674
		c-0.018-0.063-0.03-0.108-0.038-0.14c-0.218-0.78-0.321-1.345-0.313-1.692c0.009-0.349,0.099-0.673,0.269-0.973
		c0.244-0.435,0.594-0.719,1.045-0.854c0.453-0.136,0.885-0.087,1.295,0.145c0.4,0.226,0.649,0.548,0.751,0.965
		c0.101,0.417,0.038,0.871-0.189,1.359l-1.002-0.392c0.139-0.285,0.2-0.51,0.188-0.674c-0.015-0.165-0.104-0.294-0.271-0.389
		c-0.153-0.086-0.306-0.104-0.455-0.052c-0.151,0.051-0.275,0.163-0.373,0.336c-0.201,0.357-0.167,0.992,0.104,1.903
		c0.01,0.035,0.018,0.064,0.023,0.086c0.197,0.672,0.287,1.182,0.271,1.527s-0.117,0.687-0.307,1.021
		c-0.252,0.448-0.599,0.738-1.039,0.869s-0.873,0.077-1.299-0.163c-0.47-0.266-0.759-0.627-0.866-1.083
		C55.273,87.233,55.359,86.731,55.637,86.186z"/>
</g>
</svg>
