<?xml version="1.0" encoding="utf-8"?>
<!-- Generator: Adobe Illustrator 17.0.0, SVG Export Plug-In . SVG Version: 6.00 Build 0)  -->
<!DOCTYPE svg PUBLIC "-//W3C//DTD SVG 1.1//EN" "http://www.w3.org/Graphics/SVG/1.1/DTD/svg11.dtd">
<svg version="1.1" id="Layer_1" xmlns="http://www.w3.org/2000/svg" xmlns:xlink="http://www.w3.org/1999/xlink" x="0px" y="0px"
	 width="1094px" height="209px" viewBox="0 0 1094 209" style="enable-background:new 0 0 1094 209;" xml:space="preserve">
<style type="text/css">
	.st0{fill:#62676C;}
	.st1{fill:#50555B;}
	.st2{fill:#393D42;}
	.st3{fill:none;stroke:#989CA3;stroke-width:3;stroke-linecap:round;stroke-linejoin:round;stroke-miterlimit:10;}
	.st4{fill:#FFF7E4;}
	.st5{fill:#FFFFFF;}
	.st6{fill:#E9EFD7;}
	.st7{fill:#E8ECD5;}
</style>
<g>
	<g>
		<g>
			<path class="st6" d="M1065.9,192.6c-62.3-9.6-124.8-17.6-187.6-24c3-29.9,5.9-59.8,8.9-89.8c64.4,6.5,128.6,14.7,192.6,24.6
				c-12.5,14.2-24.9,28.5-37.2,42.9C1050.5,161.8,1058.2,177.2,1065.9,192.6z"/>
			<path class="st5" d="M1070.8,196.2c-65-10.2-130.1-18.5-195.5-25.1c3.1-31.8,6.3-63.5,9.4-95.3c67.2,6.7,134.1,15.3,200.7,25.7
				c-13.3,15-26.4,30-39.4,45.2C1054.4,163.2,1062.6,179.7,1070.8,196.2z M881.4,166.2c60.1,6.1,119.9,13.8,179.6,22.9
				c-7.1-14.4-14.4-28.8-21.7-43.1c11.6-13.6,23.3-27.1,35.1-40.5C1013,96.1,951.6,88.3,889.9,82C887,110,884.2,138.1,881.4,166.2z"
				/>
		</g>
		<g>
			<path class="st6" d="M15.4,103.5c64-9.9,128.2-18.1,192.6-24.6c3,29.9,5.9,59.8,8.9,89.8c-62.7,6.4-125.2,14.3-187.6,24
				c7.4-17.4,14.8-34.7,22.4-51.9C39.7,128.2,27.6,115.9,15.4,103.5z"/>
			<path class="st5" d="M220,171.2c-65.3,6.6-130.3,14.9-195.2,25c7.7-18.4,15.6-36.7,23.6-54.9C35.5,128,22.5,114.8,9.5,101.6
				c66.8-10.5,133.8-19.1,201.1-25.8C213.7,107.6,216.9,139.4,220,171.2z M33.9,189.1c59.8-9.2,119.8-16.8,179.9-23
				c-2.8-28.1-5.6-56.1-8.4-84.2c-61.6,6.3-122.9,14.1-184.1,23.5c11.4,11.5,22.6,23,33.8,34.7C48,156.4,40.9,172.7,33.9,189.1z"/>
		</g>
		<g>
			<path class="st6" d="M995.4,147.9c-293.8-38.6-591-39.1-884.9-1.4c-4.4-34.1-8.9-68.1-13.3-102.2C400,5.4,706.4,5.9,1009.1,45.8
				C1004.5,79.8,1000,113.9,995.4,147.9z"/>
			<path class="st5" d="M997.9,151.1c-295.4-39.1-594.3-39.6-889.8-1.4c-4.7-35.9-9.4-71.8-14.1-107.7
				c305-39.4,613.5-38.9,918.4,1.5C1007.5,79.3,1002.7,115.2,997.9,151.1z M113,143.4c292.3-37.2,587.8-36.8,880,1.4
				c4.3-32.2,8.6-64.4,12.8-96.7C705.2,8.9,401.2,8.4,100.5,46.7C104.6,78.9,108.8,111.2,113,143.4z"/>
		</g>
	</g>
	<g>
		<path class="st0" d="M245.6,64.4c9.7-0.9,14.6-1.3,24.3-2c0.2,3,0.4,4.4,0.6,7.4c-3.3,0.3-5,0.4-8.3,0.7c0.9,11,1.4,16.5,2.3,27.5
			c-3.1,0.3-4.6,0.4-7.7,0.6c-0.9-11-1.4-16.5-2.3-27.5c-3.3,0.3-4.9,0.4-8.2,0.7C246,68.8,245.9,67.3,245.6,64.4z"/>
		<path class="st0" d="M280.6,61.5c3.1-0.2,4.7-0.4,7.8-0.6c0.4,5.4,0.6,8.1,1,13.4c5.1-0.4,7.6-0.6,12.7-0.9
			c-0.4-5.4-0.6-8.1-1-13.4c3.1-0.2,4.7-0.3,7.8-0.5c0.8,11.6,1.6,23.3,2.4,34.9c-3.1,0.2-4.6,0.3-7.7,0.5c-0.4-5.5-0.6-8.3-1-13.9
			c-5.1,0.4-7.6,0.6-12.7,0.9c0.4,5.5,0.6,8.3,1,13.9c-3.1,0.2-4.6,0.4-7.7,0.6C282.4,84.7,281.5,73.1,280.6,61.5z"/>
		<path class="st0" d="M322.1,58.5c8.1-0.5,12.2-0.8,20.3-1.3c0.2,2.8,0.2,4.1,0.4,6.9c-5,0.3-7.5,0.5-12.5,0.8
			c0.2,2.8,0.3,4.2,0.4,7c5-0.3,7.5-0.5,12.5-0.8c0.2,2.7,0.2,4.1,0.4,6.8c-5,0.3-7.5,0.5-12.5,0.8c0.2,2.9,0.3,4.3,0.5,7.2
			c5-0.3,7.5-0.5,12.4-0.8c0.2,2.8,0.2,4.1,0.4,6.9c-8.1,0.5-12.1,0.7-20.1,1.3C323.7,81.8,322.9,70.1,322.1,58.5z"/>
		<path class="st0" d="M375.3,55.4c4.2-0.2,6.3-0.3,10.5-0.5c4.4-0.2,7.4,0.5,9.1,2.2c1.7,1.7,2.6,3.7,2.7,6.1
			c0.1,1.5-0.2,2.8-0.7,3.9c-0.5,1.1-2.7,3.3-2.7,3.3c0.1,0.3,4.3,1.9,5.4,3.5c1.1,1.6,1.7,3.3,1.8,5.1c0.1,3.2-0.9,5.8-3.1,7.7
			c-2.2,1.9-5.3,2.9-9.4,3.1c-4.8,0.2-7.2,0.3-12,0.6C376.4,78.7,375.9,67.1,375.3,55.4z M383.3,60.9c0.1,3.1,0.2,4.6,0.4,7.7
			c0.7,0,1.1-0.1,1.8-0.1c1.3-0.1,2.4-0.5,3.2-1.4c0.9-0.9,1.3-1.9,1.2-3.1c0-1-0.5-1.8-1.4-2.4c-0.9-0.6-2-0.9-3.3-0.8
			C384.4,60.8,384.1,60.9,383.3,60.9z M384,74.5c0.2,3.9,0.3,5.8,0.5,9.6c1.1-0.1,1.7-0.1,2.8-0.1c4.2-0.2,6.3-1.8,6.1-4.8
			c-0.1-1.6-0.6-2.9-1.7-3.7c-1.1-0.8-2.6-1.2-4.5-1.1C385.9,74.4,385.3,74.4,384,74.5z"/>
		<path class="st0" d="M410.8,53.8c4.8-0.2,7.1-0.3,11.9-0.5c3.6-0.1,6.5,0.7,8.7,2.5c2.2,1.8,3.3,4.2,3.4,7.4
			c0.1,1.8-0.4,3.7-1.3,5.6s-2.6,3.5-5.2,4.7c4.2,5.7,6.3,8.5,10.5,14.2c-3.5,0.1-5.3,0.2-8.9,0.3c-3.9-5.3-5.8-7.9-9.8-13.2
			c-0.4,0-0.5,0-0.9,0c0.2,5.4,0.3,8.1,0.5,13.5c-3.1,0.1-4.6,0.2-7.7,0.3C411.7,77.1,411.3,65.5,410.8,53.8z M418.9,59.8
			c0.1,3.6,0.2,5.5,0.3,9.1c0.7,0,1,0,1.7-0.1c4.1-0.1,6-1.8,5.9-5c0-1.3-0.6-2.3-1.7-3.1c-1.1-0.7-2.6-1.1-4.4-1
			C420,59.7,419.6,59.7,418.9,59.8z"/>
		<path class="st0" d="M449,52.5c3.1-0.1,4.7-0.1,7.8-0.2c0.3,11.7,0.6,23.3,0.9,35c-3.1,0.1-4.6,0.1-7.7,0.2
			C449.7,75.8,449.4,64.2,449,52.5z"/>
		<path class="st0" d="M469.6,52c4.9-0.1,7.4-0.2,12.3-0.3c5.3-0.1,9.5,1.4,12.8,4.6c3.3,3.2,4.9,7.4,5,12.6
			c0.1,5.3-1.5,9.5-4.8,12.8c-3.2,3.2-7.6,4.9-13,5c-4.6,0.1-6.9,0.1-11.6,0.2C470.1,75.3,469.8,63.7,469.6,52z M477.5,58.4
			c0.2,8.6,0.3,13,0.4,21.6c1.2,0,1.8,0,3.1-0.1c3.2-0.1,5.8-1,7.8-2.7c2-1.7,3-4.6,2.9-8.5c0-2.3-0.6-4.3-1.6-6.1s-2.5-2.9-4.4-3.5
			c-1.9-0.6-3.7-0.9-5.4-0.8C479.3,58.4,478.7,58.4,477.5,58.4z"/>
		<path class="st0" d="M511.2,51.3c8.1-0.1,12.2-0.1,20.4-0.2c0,2.8,0,4.2,0,6.9c-5,0-7.5,0-12.5,0.1c0,2.8,0,4.2,0.1,7.1
			c5,0,7.5-0.1,12.5-0.1c0,2.7,0,4.1,0,6.8c-5,0-7.5,0-12.5,0.1c0,2.9,0,4.3,0.1,7.2c5,0,7.5-0.1,12.5-0.1c0,2.8,0,4.2,0,6.9
			c-8.1,0-12.1,0.1-20.2,0.2C511.5,74.6,511.4,63,511.2,51.3z"/>
		<path class="st0" d="M579.8,69.1c1.9,2.3,2.9,3.4,4.8,5.6c1.6-1.5,2.4-2.2,4-3.7c1.4,1.7,2.2,2.5,3.6,4.2
			c-0.1,0.1-0.7,0.7-1.8,1.8c-1.1,1.1-1.8,1.7-2.1,1.7c2.6,3,3.9,4.6,6.5,7.6c-3.5,0-5.3-0.1-8.8-0.1c-1.2-1.3-1.8-2-2.9-3.4
			c-2.8,1.5-4.8,2.6-6.1,3.1c-1.2,0.5-2.5,0.7-3.9,0.7c-1.5,0-3.1-0.3-4.7-1c-1.6-0.6-2.9-1.7-3.8-3.1c-0.9-1.5-1.4-3-1.4-4.7
			c0-3.8,7.5-8.8,7.7-9.5c0.2-0.7-3.3-5.3-3.3-7.9c0-2.2,0.9-4.1,2.7-5.7c1.8-1.6,4-2.4,6.5-2.3c2.6,0,4.9,0.8,6.6,2.4
			c1.8,1.6,2.6,3.5,2.6,5.8c0,1.9-0.8,3.5-2.3,5S581,68.2,579.8,69.1z M576.8,75.6c-0.1-0.1-0.4-0.5-1-1.2c-0.6-0.7-1.2-1.6-1.4-1.6
			c-0.9,0-3,3.3-3,4.9c0,0.7,0.3,1.4,0.9,2c0.6,0.6,1.3,0.9,2.1,0.9c1.2,0,2.8-0.7,4.9-2C578.3,77.4,577.8,76.8,576.8,75.6z
			 M576.5,65c0.8,0.1,3.5-3.3,3.5-4.8c0-0.9-0.3-1.5-0.8-2.1c-0.5-0.5-1.2-0.8-2.1-0.8c-0.8,0-1.5,0.3-2,0.8
			c-0.5,0.6-0.8,1.3-0.8,2.1C574.2,61.4,575.9,65,576.5,65z"/>
		<path class="st0" d="M657.1,60.4c-2.1,1.8-3.2,2.7-5.3,4.5c-1-1.8-2.3-3.2-3.9-4.2c-1.6-0.9-3.2-1.4-5-1.5
			c-2.8-0.1-5.3,0.9-7.4,2.9c-2.1,2-3.2,4.5-3.3,7.3c-0.1,3,0.9,5.6,2.9,7.7c2,2.1,4.5,3.2,7.4,3.3c1.6,0,3.1-0.3,4.6-1
			c1.5-0.7,2.7-2.2,3.7-4.3c-3.4-0.1-5.1-0.2-8.5-0.2c0.1-2.7,0.1-4.1,0.2-6.8c6.6,0.2,10,0.3,16.6,0.5c-0.1,1.8-0.1,2.7-0.1,4.5
			c-0.1,2.3-1,4.8-2.7,7.4c-1.7,2.6-3.9,4.5-6.7,5.7c-2.7,1.2-5.4,1.7-8.2,1.6c-4.9-0.1-9.1-2-12.4-5.6c-3.3-3.6-4.9-7.9-4.8-13.1
			c0.1-4.9,2-9,5.6-12.4c3.6-3.4,7.9-5,12.9-4.9C649,52.1,653.8,55,657.1,60.4z"/>
		<path class="st0" d="M670.9,53.3c4.8,0.2,7.1,0.3,11.9,0.4c3.6,0.1,6.4,1.2,8.5,3.1c2,1.9,3,4.5,2.8,7.6c-0.1,1.8-0.6,3.6-1.7,5.5
			c-1,1.9-2.9,3.3-5.5,4.3c3.8,6,5.7,9,9.4,15c-3.5-0.2-5.3-0.2-8.9-0.4c-3.5-5.6-5.2-8.3-8.7-13.9c-0.4,0-0.5,0-0.9,0
			c-0.2,5.4-0.3,8.1-0.5,13.5c-3.1-0.1-4.6-0.2-7.7-0.3C670.1,76.6,670.5,65,670.9,53.3z M678.6,59.8c-0.1,3.6-0.2,5.5-0.3,9.1
			c0.7,0,1,0,1.7,0.1c4.1,0.2,6.1-1.4,6.3-4.6c0.1-1.3-0.4-2.4-1.5-3.2c-1-0.8-2.5-1.3-4.4-1.3C679.6,59.9,679.3,59.9,678.6,59.8z"
			/>
		<path class="st0" d="M707.6,72.3c0.2-5.2,2.2-9.3,5.9-12.5c3.7-3.2,8-4.7,12.8-4.4c5.4,0.3,9.7,2.2,13,5.8s4.8,7.9,4.5,13.1
			c-0.3,5.1-2.3,9.3-5.9,12.5c-3.6,3.2-8,4.7-13.3,4.4c-5.2-0.3-9.4-2.2-12.6-5.7C708.8,81.9,707.3,77.5,707.6,72.3z M726.3,62.4
			c-3-0.2-5.5,0.7-7.5,2.7c-2,2-3,4.6-3.2,7.9c-0.2,3.1,0.7,5.7,2.4,7.9c1.8,2.1,4.1,3.3,6.9,3.4c3,0.2,5.5-0.7,7.4-2.6
			c2-1.9,3-4.5,3.2-7.8c0.2-3.2-0.6-5.9-2.3-8C731.6,63.7,729.3,62.6,726.3,62.4z"/>
		<path class="st0" d="M754.7,74.8c0.3-5.2,2.3-9.3,6.1-12.5s8-4.6,12.9-4.2c5.4,0.4,9.7,2.3,12.9,6c3.3,3.6,4.7,8,4.3,13.2
			c-0.4,5.1-2.4,9.3-6.1,12.4c-3.7,3.1-8.1,4.5-13.3,4.2c-5.2-0.3-9.4-2.3-12.6-5.9C755.8,84.4,754.4,80,754.7,74.8z M773.5,65.1
			c-3-0.3-5.5,0.6-7.5,2.6c-2,2-3.1,4.6-3.3,7.9c-0.2,3.1,0.6,5.7,2.3,7.9s4,3.3,6.9,3.5c3,0.2,5.5-0.6,7.5-2.5
			c2-1.9,3.1-4.5,3.3-7.8c0.2-3.2-0.5-5.9-2.2-8C778.9,66.6,776.6,65.4,773.5,65.1z"/>
		<path class="st0" d="M806.9,60.9c3.7,0.3,5.5,0.4,9.2,0.7c2.1,8.6,3.1,12.9,5.1,21.4c3.4-8.1,5-12.2,8.4-20.4
			c3.6,0.3,5.3,0.4,8.9,0.7c0.6,11.8,1.1,23.5,1.6,35.3c-2.9-0.3-4.4-0.4-7.3-0.6c-0.4-9.9-0.7-14.9-1.1-24.8
			c-4,9.6-6,14.3-9.9,23.9c-1.4-0.1-2.1-0.2-3.5-0.3c-2.4-10.2-3.7-15.2-6.2-25.4c-2,9.8-2.9,14.7-4.9,24.5c-3-0.2-4.5-0.3-7.5-0.6
			C802.2,83.9,804.5,72.4,806.9,60.9z"/>
	</g>
</g>
</svg>
