<?xml version="1.0" encoding="utf-8"?>
<!-- Generator: Adobe Illustrator 17.0.0, SVG Export Plug-In . SVG Version: 6.00 Build 0)  -->
<!DOCTYPE svg PUBLIC "-//W3C//DTD SVG 1.1//EN" "http://www.w3.org/Graphics/SVG/1.1/DTD/svg11.dtd">
<svg version="1.1" id="Layer_1" xmlns="http://www.w3.org/2000/svg" xmlns:xlink="http://www.w3.org/1999/xlink" x="0px" y="0px"
	 width="1238px" height="209px" viewBox="0 0 1238 209" style="enable-background:new 0 0 1238 209;" xml:space="preserve">
<style type="text/css">
	.st0{fill:#62676C;}
	.st1{fill:#50555B;}
	.st2{fill:#393D42;}
	.st3{fill:none;stroke:#989CA3;stroke-width:3;stroke-linecap:round;stroke-linejoin:round;stroke-miterlimit:10;}
	.st4{fill:#FFF7E4;}
	.st5{fill:#FFFFFF;}
	.st6{fill:#E9EFD7;}
	.st7{fill:#E8ECD5;}
</style>
<g>
	<g>
		<g>
			<g>
				<path class="st0" d="M1190.3,195.5c-58.4-9.1-117-16.8-175.8-23.2c3-28,6-56.1,9-84.1c60.1,6.6,120.1,14.5,179.9,23.8
					c-11.7,13.3-23.3,26.7-34.9,40.2C1175.9,166.5,1183.2,181,1190.3,195.5z"/>
				<path class="st5" d="M1194.9,198.9c-60.9-9.5-122-17.6-183.3-24.3c3.2-29.8,6.4-59.5,9.5-89.3c62.7,6.8,125.2,15.1,187.5,24.8
					c-12.4,14.1-24.7,28.2-36.9,42.4C1179.6,167.9,1187.3,183.4,1194.9,198.9z M1017.4,169.9c56.3,6.2,112.4,13.6,168.3,22.2
					c-6.7-13.5-13.5-27-20.3-40.4c10.9-12.7,21.8-25.4,32.9-38C1141,105,1083.6,97.4,1026,91
					C1023.1,117.3,1020.3,143.6,1017.4,169.9z"/>
			</g>
			<g>
				<path class="st0" d="M43.6,111.9c59.8-9.3,119.7-17.2,179.9-23.8c3,28,6,56.1,9,84.1c-58.8,6.4-117.4,14.2-175.8,23.2
					c6.9-16.3,13.9-32.5,21-48.7C66.4,135.1,55,123.5,43.6,111.9z"/>
				<path class="st5" d="M235.4,174.6c-61.2,6.7-122.2,14.7-183,24.2c7.3-17.2,14.6-34.4,22.1-51.5c-12.1-12.5-24.2-24.9-36.5-37.2
					c62.4-9.8,125-18.1,187.8-24.9C229.1,115,232.2,144.8,235.4,174.6z M61,192.2c56.1-8.6,112.3-16,168.7-22.2
					c-2.8-26.3-5.7-52.6-8.5-78.9c-57.5,6.3-114.8,13.9-172,22.7c10.6,10.8,21.2,21.6,31.7,32.5C74.1,161.5,67.5,176.8,61,192.2z"/>
			</g>
			<g>
				<path class="st0" d="M1124.4,153.5c-329.1-44.5-662.5-44.9-991.7-1.4c-4.3-31.9-8.6-63.9-12.9-95.8
					c337.8-44.7,680-44.3,1017.7,1.4C1133.1,89.6,1128.7,121.5,1124.4,153.5z"/>
				<path class="st5" d="M1126.6,156.4c-330.6-44.9-665.5-45.4-996.2-1.4c-4.5-33.7-9.1-67.3-13.6-101
					C456.6,8.8,800.8,9.3,1140.6,55.5C1135.9,89.1,1131.3,122.8,1126.6,156.4z M135,149.2c327.7-43.1,659.5-42.7,987.1,1.4
					c4.1-30.2,8.2-60.4,12.4-90.6C798.7,14.8,458.7,14.3,122.9,58.5C126.9,88.7,130.9,119,135,149.2z"/>
			</g>
		</g>
		<g>
			<path class="st7" d="M219.8,78.2c2.9-0.3,4.3-0.5,7.2-0.8c1.1,10.2,1.6,15.4,2.7,25.6c3.9-0.4,5.9-0.6,9.9-1
				c0.3,2.8,0.4,4.2,0.7,7c-6.8,0.7-10.2,1.1-17,1.8C222.1,100,221,89.1,219.8,78.2z"/>
			<path class="st7" d="M247.8,91.8c-0.5-4.8,0.7-9,3.7-12.4c3-3.5,6.7-5.4,11.2-5.9c5-0.5,9.3,0.7,12.8,3.6c3.6,2.9,5.6,6.7,6,11.5
				c0.4,4.8-0.8,8.9-3.7,12.4c-2.9,3.5-6.8,5.4-11.7,5.9c-4.9,0.5-9-0.7-12.5-3.5C250.3,100.5,248.3,96.6,247.8,91.8z M263.8,79.9
				c-2.8,0.2-5,1.4-6.5,3.5c-1.5,2.1-2.1,4.7-1.8,7.8c0.3,2.9,1.4,5.2,3.3,7c1.9,1.7,4.2,2.5,6.9,2.2c2.8-0.3,5-1.4,6.5-3.5
				c1.5-2,2.2-4.6,1.9-7.7c-0.3-3-1.4-5.4-3.2-7.1C268.9,80.4,266.6,79.7,263.8,79.9z"/>
			<path class="st7" d="M291.3,71.2c4.6-0.4,6.9-0.6,11.5-1c4.9-0.4,9,0.8,12.2,3.5c3.2,2.8,5.1,6.6,5.5,11.5
				c0.4,4.9-0.8,9-3.6,12.2c-2.8,3.2-6.8,5.1-11.9,5.5c-4.3,0.4-6.5,0.6-10.8,0.9C293.2,92.9,292.2,82.1,291.3,71.2z M299.1,76.7
				c0.7,8.1,1.1,12.1,1.8,20.2c1.1-0.1,1.7-0.1,2.9-0.2c3-0.3,5.3-1.2,7.1-3c1.8-1.7,2.5-4.4,2.2-8.1c-0.2-2.1-0.8-4-1.9-5.6
				c-1.1-1.6-2.5-2.6-4.3-3c-1.8-0.4-3.5-0.6-5.1-0.5C300.7,76.6,300.2,76.6,299.1,76.7z"/>
			<path class="st7" d="M359.2,72.9c-1.8,1.9-2.7,2.8-4.5,4.7c-1.1-1.6-2.5-2.8-4-3.5c-1.5-0.7-3.1-1-4.8-0.9
				c-2.6,0.2-4.8,1.3-6.6,3.4c-1.8,2.1-2.6,4.5-2.4,7.1c0.2,2.8,1.4,5.1,3.4,6.9c2.1,1.8,4.5,2.6,7.2,2.4c1.5-0.1,2.9-0.6,4.2-1.4
				c1.3-0.8,2.3-2.3,3-4.4c-3.2,0.2-4.8,0.3-7.9,0.6c-0.2-2.6-0.3-3.8-0.5-6.4c6.2-0.5,9.3-0.7,15.5-1.1c0.1,1.7,0.2,2.5,0.3,4.2
				c0.2,2.2-0.4,4.6-1.8,7.2c-1.4,2.6-3.2,4.6-5.6,5.9c-2.4,1.3-4.9,2.1-7.4,2.3c-4.6,0.3-8.6-1-12.1-4c-3.4-3-5.3-6.9-5.7-11.8
				c-0.4-4.6,1-8.6,4-12.1c3-3.5,6.9-5.4,11.5-5.8C351,65.9,355.7,68.1,359.2,72.9z"/>
			<path class="st7" d="M371.2,64.9c2.9-0.2,4.4-0.3,7.3-0.5c0.7,10.9,1.4,21.8,2.1,32.7c-2.9,0.2-4.3,0.3-7.2,0.5
				C372.6,86.7,371.9,75.8,371.2,64.9z"/>
			<path class="st7" d="M412.8,62.3c2.8-0.2,4.3-0.2,7.1-0.4c0.6,10.9,1.2,21.8,1.8,32.8c-2.8,0.2-4.2,0.2-7,0.4
				c-6.6-8.1-9.9-12.2-16.6-20.3c0.5,8.5,0.8,12.7,1.3,21.2c-2.9,0.2-4.3,0.3-7.2,0.4c-0.7-10.9-1.4-21.8-2-32.8
				c2.9-0.2,4.3-0.3,7.2-0.4c6.7,8,10,12.1,16.7,20.2C413.5,75,413.2,70.8,412.8,62.3z"/>
			<path class="st7" d="M461,67.1c-1.9,1.8-2.8,2.8-4.6,4.6c-1.1-1.7-2.4-2.9-3.9-3.6c-1.5-0.8-3.1-1.1-4.7-1
				c-2.6,0.1-4.9,1.2-6.7,3.3c-1.8,2-2.7,4.4-2.6,7c0.1,2.8,1.2,5.1,3.3,7c2,1.9,4.4,2.7,7.1,2.6c1.5-0.1,2.9-0.5,4.2-1.3
				c1.3-0.8,2.4-2.2,3.1-4.3c-3.2,0.1-4.8,0.2-8,0.4c-0.1-2.6-0.2-3.8-0.3-6.4c6.2-0.3,9.3-0.4,15.5-0.7c0.1,1.7,0.1,2.5,0.2,4.2
				c0.1,2.2-0.6,4.6-2,7.1c-1.4,2.6-3.4,4.5-5.8,5.8c-2.4,1.3-4.9,2-7.5,2.1c-4.6,0.2-8.6-1.2-11.9-4.3c-3.3-3.1-5.2-7.1-5.4-11.9
				c-0.2-4.6,1.2-8.6,4.3-12c3.1-3.4,7-5.2,11.7-5.4C452.9,59.8,457.6,62.2,461,67.1z"/>
			<path class="st7" d="M504.5,58.3c2.3-0.1,3.4-0.1,5.6-0.2c4.9,10.8,9.8,21.6,14.6,32.4c-2.9,0.1-4.4,0.1-7.3,0.2
				c-1.1-2.5-1.7-3.8-2.9-6.4c-5.1,0.2-7.7,0.2-12.9,0.4c-1,2.6-1.5,3.9-2.4,6.5c-2.9,0.1-4.3,0.1-7.2,0.2
				C496.2,80.5,500.3,69.4,504.5,58.3z M507.6,69c-1.5,3.9-2.2,5.9-3.7,9.8c3.2-0.1,4.8-0.2,8-0.2C510.2,74.7,509.4,72.8,507.6,69z"
				/>
			<path class="st7" d="M559.5,58.7c0.1,3.2,0.1,4.8,0.1,8c-3.7-2.1-6.9-3.1-9.6-3c-2.7,0.1-4.9,1-6.5,2.9c-1.6,1.9-2.4,4.4-2.3,7.4
				c0.1,2.9,1,5.3,2.7,7c1.8,1.7,4.1,2.6,7,2.5c2.5,0,5.5-1.1,9-3.1c0.1,3.2,0.1,4.8,0.1,7.9c-3.9,1.4-7.2,2.1-9.8,2.1
				c-4.5,0.1-8.4-1.4-11.6-4.6c-3.2-3.2-4.9-7.1-5-11.7c-0.1-4.7,1.4-8.8,4.6-12.2c3.2-3.4,7.1-5.1,11.7-5.2
				C552.9,56.6,556.1,57.3,559.5,58.7z"/>
			<path class="st7" d="M595.5,58.3c0,3.2,0,4.8,0.1,8c-3.7-2.1-6.9-3.1-9.6-3.1c-2.7,0-4.9,1-6.5,2.8c-1.6,1.9-2.4,4.3-2.4,7.4
				c0,2.9,0.9,5.3,2.7,7c1.7,1.7,4.1,2.6,6.9,2.6c2.5,0,5.5-1,9-3.1c0,3.2,0,4.8,0.1,7.9c-3.9,1.3-7.2,2-9.8,2
				c-4.5,0-8.4-1.5-11.5-4.7s-4.8-7.1-4.9-11.8c-0.1-4.7,1.5-8.8,4.7-12.1c3.2-3.3,7.1-5,11.7-5.1C588.9,56.1,592.1,56.8,595.5,58.3
				z"/>
			<path class="st7" d="M605.2,72.9c0-4.8,1.6-8.9,4.9-12c3.3-3.2,7.2-4.8,11.7-4.8c5,0,9.2,1.6,12.4,4.8c3.3,3.2,4.9,7.2,4.9,12.1
				c0,4.8-1.6,8.8-4.9,12c-3.2,3.2-7.3,4.8-12.2,4.8c-4.9,0-8.9-1.6-12.1-4.7S605.3,77.7,605.2,72.9z M622.2,62.6
				c-2.8,0-5.1,0.9-6.8,2.9c-1.7,2-2.6,4.5-2.6,7.6c0,2.9,0.9,5.3,2.7,7.2c1.8,1.9,4,2.9,6.7,2.9c2.8,0,5.1-0.9,6.8-2.8
				c1.7-1.9,2.6-4.4,2.6-7.5c0-3-0.8-5.5-2.5-7.4C627.3,63.6,625,62.7,622.2,62.6z"/>
			<path class="st7" d="M653,56.5c3.5,0,5.2,0,8.7,0.1c2.5,7.9,3.7,11.8,6.1,19.7c2.6-7.8,3.9-11.8,6.6-19.6c3.3,0,5,0.1,8.3,0.1
				c1.3,11,2.5,21.9,3.8,32.9c-2.8,0-4.1-0.1-6.9-0.1c-1-9.3-1.6-13.9-2.6-23.1c-3.1,9.2-4.6,13.8-7.7,23c-1.3,0-2,0-3.3,0
				c-2.9-9.4-4.4-14-7.3-23.4c-1.2,9.3-1.8,14-3,23.3c-2.8,0-4.2,0-7-0.1C650.1,78.4,651.5,67.5,653,56.5z"/>
			<path class="st7" d="M700,57.2c3.5,0.1,5.2,0.1,8.7,0.2c2.4,7.9,3.5,11.9,5.9,19.8c2.7-7.8,4.1-11.7,6.8-19.5
				c3.3,0.1,5,0.1,8.3,0.2c1.1,11,2.3,22,3.4,32.9c-2.8-0.1-4.1-0.1-6.9-0.2c-0.9-9.3-1.4-13.9-2.3-23.2c-3.2,9.2-4.8,13.7-8,22.9
				c-1.3,0-2,0-3.3-0.1c-2.8-9.4-4.2-14.1-7.1-23.5c-1.3,9.3-2,13.9-3.3,23.2c-2.8-0.1-4.2-0.1-7-0.1C696.8,79,698.4,68.1,700,57.2z
				"/>
			<path class="st7" d="M743,74.7c0.2-4.8,1.9-8.8,5.3-11.8c3.4-3,7.4-4.5,11.9-4.3c5,0.2,9.1,1.9,12.2,5.2
				c3.1,3.3,4.6,7.4,4.4,12.2c-0.2,4.8-2,8.7-5.3,11.8c-3.3,3.1-7.4,4.5-12.3,4.3c-4.9-0.2-8.8-1.9-11.9-5.2
				C744.3,83.7,742.8,79.6,743,74.7z M760.3,65.1c-2.8-0.2-5.1,0.7-6.9,2.6c-1.8,1.9-2.7,4.4-2.8,7.5c-0.1,2.9,0.7,5.4,2.4,7.3
				c1.7,2,3.9,3,6.5,3.1c2.8,0.1,5.1-0.8,6.9-2.6c1.8-1.8,2.8-4.3,2.9-7.4c0.1-3-0.6-5.5-2.3-7.4C765.3,66.3,763.1,65.3,760.3,65.1z
				"/>
			<path class="st7" d="M788.7,60.1c4.6,0.2,6.9,0.3,11.5,0.5c4.9,0.2,8.8,1.9,11.7,5.1c2.8,3.2,4.1,7.2,3.9,12.1
				c-0.3,4.9-2,8.8-5.2,11.6c-3.2,2.8-7.4,4.1-12.5,3.9c-4.3-0.2-6.5-0.3-10.8-0.5C787.7,81.9,788.2,71,788.7,60.1z M795.7,66.6
				c-0.4,8.1-0.6,12.1-0.9,20.2c1.1,0.1,1.7,0.1,2.9,0.1c3,0.1,5.4-0.5,7.4-2c2-1.5,3.1-4.1,3.3-7.8c0.1-2.1-0.3-4.1-1.1-5.8
				c-0.8-1.7-2.1-2.9-3.9-3.6c-1.7-0.7-3.4-1-5-1.1C797.3,66.6,796.8,66.6,795.7,66.6z"/>
			<path class="st7" d="M839.3,62.6c2.3,0.1,3.4,0.2,5.6,0.3c3.9,11.2,7.8,22.4,11.7,33.6c-2.9-0.2-4.4-0.3-7.3-0.4
				c-0.9-2.6-1.4-4-2.3-6.6c-5.1-0.3-7.7-0.5-12.9-0.8c-1.2,2.5-1.8,3.8-3,6.3c-2.9-0.2-4.3-0.2-7.2-0.4
				C829,83.9,834.1,73.3,839.3,62.6z M841.5,73.5c-1.8,3.8-2.7,5.7-4.5,9.4c3.2,0.2,4.8,0.3,8,0.5C843.5,79.5,842.9,77.5,841.5,73.5
				z"/>
			<path class="st7" d="M866.7,64.3c9.1,0.6,13.6,0.9,22.7,1.5c-0.2,2.8-0.3,4.2-0.5,7c-3.1-0.2-4.6-0.3-7.7-0.5
				c-0.7,10.3-1.1,15.5-1.8,25.8c-2.9-0.2-4.3-0.3-7.2-0.5c0.7-10.3,1-15.5,1.7-25.8c-3.1-0.2-4.6-0.3-7.7-0.5
				C866.5,68.5,866.5,67.1,866.7,64.3z"/>
			<path class="st7" d="M899.1,66.6c2.9,0.2,4.4,0.3,7.3,0.5c-0.8,10.9-1.7,21.8-2.5,32.7c-2.9-0.2-4.3-0.3-7.2-0.5
				C897.5,88.4,898.3,77.5,899.1,66.6z"/>
			<path class="st7" d="M916,84.3c0.4-4.8,2.3-8.7,5.9-11.6c3.5-2.9,7.6-4.1,12.1-3.8c5,0.4,9,2.4,12,5.8c3,3.4,4.3,7.6,3.8,12.4
				c-0.4,4.8-2.4,8.6-5.9,11.5c-3.5,2.9-7.7,4.1-12.5,3.7c-4.9-0.4-8.7-2.3-11.6-5.7C916.9,93.3,915.7,89.1,916,84.3z M933.8,75.5
				c-2.8-0.3-5.2,0.5-7,2.3c-1.9,1.8-2.9,4.2-3.2,7.3c-0.2,2.9,0.4,5.4,2,7.4s3.7,3.2,6.4,3.4c2.8,0.2,5.1-0.5,7-2.3
				c1.9-1.7,3-4.1,3.2-7.2c0.3-3-0.4-5.6-1.9-7.5C938.8,76.9,936.6,75.8,933.8,75.5z"/>
			<path class="st7" d="M984.9,73.9c2.8,0.3,4.3,0.4,7.1,0.7c-1.1,10.9-2.1,21.8-3.2,32.7c-2.8-0.3-4.2-0.4-7-0.7
				c-5.3-9-7.9-13.6-13.3-22.6c-0.8,8.5-1.2,12.7-2,21.2c-2.9-0.3-4.3-0.4-7.2-0.7c1-10.9,2-21.8,3-32.7c2.9,0.3,4.3,0.4,7.2,0.7
				c5.4,9,8.1,13.5,13.4,22.5C983.6,86.5,984.1,82.3,984.9,73.9z"/>
			<path class="st7" d="M1022.6,80.7c-2,1.7-3,2.6-5,4.3c-2.2-1.6-3.9-2.5-4.9-2.6c-0.8-0.1-1.5,0.1-2.2,0.7c-0.6,0.5-1,1.2-1.1,2
				c-0.2,1.6,1.2,3.1,4.1,4.6c2.1,1.1,3.7,2.1,4.7,3c1,0.9,1.9,2,2.5,3.4s0.8,2.8,0.7,4.4c-0.3,2.8-1.7,5.1-4.3,6.9
				c-2.5,1.8-5.4,2.6-8.5,2.2c-3.5-0.4-6.7-2.3-9.8-5.8c2.1-2,3.2-2.9,5.3-4.9c1.9,2.4,3.8,3.6,5.6,3.8c0.9,0.1,1.7-0.2,2.6-0.9
				c0.9-0.7,1.4-1.4,1.4-2.2c0.2-1.7-1.5-3.4-5.1-5.1c-2-1-3.5-1.8-4.3-2.6c-0.8-0.7-1.5-1.8-1.9-3.1c-0.5-1.3-0.6-2.6-0.5-3.9
				c0.3-2.9,1.5-5.2,3.6-6.8c2.1-1.6,4.8-2.2,7.9-1.9C1017.3,76.7,1020.3,78.2,1022.6,80.7z"/>
		</g>
	</g>
</g>
</svg>
