<?xml version="1.0" encoding="utf-8"?>
<!-- Generator: Adobe Illustrator 17.0.0, SVG Export Plug-In . SVG Version: 6.00 Build 0)  -->
<!DOCTYPE svg PUBLIC "-//W3C//DTD SVG 1.1//EN" "http://www.w3.org/Graphics/SVG/1.1/DTD/svg11.dtd">
<svg version="1.1" id="Layer_1" xmlns="http://www.w3.org/2000/svg" xmlns:xlink="http://www.w3.org/1999/xlink" x="0px" y="0px"
	 width="902px" height="209px" viewBox="0 0 902 209" style="enable-background:new 0 0 902 209;" xml:space="preserve">
<style type="text/css">
	.st0{fill:#62676C;}
	.st1{fill:#50555B;}
	.st2{fill:#393D42;}
	.st3{fill:none;stroke:#989CA3;stroke-width:3;stroke-linecap:round;stroke-linejoin:round;stroke-miterlimit:10;}
	.st4{fill:#FFF7E4;}
	.st5{fill:#FFFFFF;}
	.st6{fill:#E9EFD7;}
	.st7{fill:#E8ECD5;}
</style>
<g>
	<g>
		<g>
			<g>
				<path class="st6" d="M849.6,183.5c-58.5-9-117.1-16.1-176-21.4c2.4-28.1,4.9-56.2,7.3-84.3c60.8,5.4,121.4,12.8,181.8,22.1
					c-11.8,13.3-23.4,26.7-35,40.2C835.1,154.6,842.4,169,849.6,183.5z"/>
				<path class="st5" d="M854.2,186.9c-60.9-9.5-122.1-16.9-183.5-22.4c2.6-29.8,5.1-59.7,7.7-89.5c63.4,5.6,126.6,13.3,189.5,23.1
					c-12.5,14-24.8,28.2-37,42.4C838.8,155.9,846.6,171.4,854.2,186.9z M676.4,159.8c56.4,5.1,112.6,11.9,168.6,20.4
					c-6.7-13.5-13.6-26.9-20.5-40.4c10.9-12.8,21.9-25.4,32.9-38C799.7,93,741.6,86,683.4,80.7C681.1,107.1,678.8,133.4,676.4,159.8
					z"/>
			</g>
			<g>
				<path class="st6" d="M35.2,99.9C95.6,90.7,156.1,83.3,217,77.9c2.4,28.1,4.9,56.2,7.3,84.3c-58.9,5.3-117.6,12.4-176,21.4
					c6.9-16.3,14-32.5,21.1-48.7C58.1,123.1,46.7,111.5,35.2,99.9z"/>
				<path class="st5" d="M227.1,164.5c-61.3,5.4-122.3,12.9-183.1,22.3c7.3-17.2,14.7-34.4,22.2-51.5
					c-12.1-12.5-24.3-24.9-36.6-37.2c63-9.8,126.3-17.5,189.8-23.2C222,104.9,224.6,134.7,227.1,164.5z M52.5,180.2
					c56.1-8.5,112.4-15.3,168.9-20.5c-2.3-26.4-4.6-52.7-7-79.1c-58.1,5.3-116,12.3-173.7,21c10.7,10.8,21.3,21.6,31.8,32.6
					C65.7,149.5,59.1,164.9,52.5,180.2z"/>
			</g>
			<g>
				<path class="st6" d="M783.3,141.8c-218.9-27.5-439.7-27.9-658.7-1.3c-4-32-8-64-11.9-95.9c227-27.7,456.1-27.2,683,1.3
					C791.5,77.9,787.4,109.8,783.3,141.8z"/>
				<path class="st5" d="M785.6,144.7c-220.4-27.9-442.8-28.4-663.3-1.3c-4.2-33.7-8.5-67.4-12.7-101.1
					c229-28.2,460.2-27.7,689.1,1.3C794.4,77.3,790,111,785.6,144.7z M126.9,137.6c217.4-26.3,436.7-25.8,654.1,1.3
					c3.9-30.2,7.7-60.5,11.6-90.7c-224.9-28.1-451.8-28.5-676.8-1.3C119.5,77.1,123.2,107.3,126.9,137.6z"/>
			</g>
		</g>
		<g>
			<path class="st0" d="M298.9,61.7c4.5-0.3,6.7-0.4,11.2-0.6c3.4-0.2,6.2,0.6,8.2,2.2c2.1,1.6,3.2,3.9,3.3,6.9
				c0.1,1.7-0.3,3.4-1.1,5.3c-0.8,1.9-2.4,3.4-4.8,4.5c4.1,5.3,6.1,7.9,10.1,13.2c-3.3,0.2-5,0.2-8.3,0.4c-3.7-4.9-5.6-7.3-9.4-12.2
				c-0.3,0-0.5,0-0.8,0c0.3,5.1,0.4,7.6,0.7,12.7c-2.9,0.2-4.4,0.2-7.3,0.4C300.1,83.5,299.5,72.6,298.9,61.7z M306.6,67.1
				c0.2,3.4,0.3,5.1,0.5,8.5c0.6,0,0.9-0.1,1.6-0.1c3.8-0.2,5.7-1.8,5.5-4.8c-0.1-1.2-0.6-2.2-1.6-2.9c-1-0.7-2.4-1-4.2-0.9
				C307.6,67.1,307.3,67.1,306.6,67.1z"/>
			<path class="st0" d="M335.4,59.9c7.7-0.3,11.5-0.5,19.2-0.7c0.1,2.6,0.1,3.9,0.2,6.5c-4.7,0.2-7.1,0.3-11.8,0.4
				c0.1,2.6,0.2,4,0.3,6.6c4.7-0.2,7.1-0.3,11.8-0.4c0.1,2.6,0.1,3.8,0.2,6.4c-4.7,0.2-7.1,0.3-11.8,0.4c0.1,2.7,0.2,4.1,0.3,6.8
				c4.7-0.2,7-0.3,11.7-0.4c0.1,2.6,0.1,3.9,0.2,6.5c-7.6,0.3-11.4,0.4-19,0.7C336.3,81.8,335.8,70.8,335.4,59.9z"/>
			<path class="st0" d="M395.3,65.2c-1.9,1.8-2.9,2.7-4.8,4.5c-1.1-1.7-2.3-2.9-3.9-3.7c-1.5-0.8-3.1-1.2-4.8-1.1
				c-2.7,0.1-5,1.1-6.9,3.1c-1.9,2-2.8,4.3-2.7,7c0.1,2.8,1.1,5.2,3.1,7.1s4.4,2.8,7.1,2.8c1.5,0,2.9-0.4,4.3-1.2
				c1.4-0.8,2.4-2.2,3.2-4.2c-3.2,0.1-4.8,0.1-8,0.2c-0.1-2.6-0.1-3.8-0.2-6.4c6.3-0.2,9.4-0.2,15.7-0.3c0,1.7,0,2.5,0.1,4.2
				c0,2.2-0.7,4.5-2.2,7.1c-1.5,2.5-3.5,4.4-6,5.6c-2.5,1.2-5,1.9-7.6,1.9c-4.7,0.1-8.6-1.4-11.9-4.6c-3.3-3.2-5-7.2-5.2-12
				c-0.1-4.6,1.4-8.5,4.6-11.9c3.2-3.3,7.2-5.1,11.9-5.2C387.3,57.8,392,60.2,395.3,65.2z"/>
			<path class="st0" d="M407.7,57.8c2.9,0,4.4-0.1,7.4-0.1c0.1,10.9,0.3,21.9,0.4,32.8c-2.9,0-4.4,0.1-7.3,0.1
				C408.1,79.7,407.9,68.8,407.7,57.8z"/>
			<path class="st0" d="M446.5,60.5c-1.8,1.9-2.7,2.9-4.6,4.8c-2.4-1.4-4.1-2-5.2-2c-0.8,0-1.5,0.3-2.1,0.9
				c-0.6,0.6-0.9,1.3-0.9,2.1c0,1.6,1.6,3,4.6,4.2c2.2,0.9,3.9,1.7,5.1,2.5c1.1,0.7,2.1,1.8,2.9,3.1c0.8,1.3,1.2,2.7,1.2,4.3
				c0,2.8-1.2,5.3-3.5,7.4c-2.3,2.1-5.1,3.1-8.3,3.2c-3.5,0-7-1.6-10.4-4.7c1.9-2.2,2.8-3.3,4.7-5.5c2.2,2.1,4.2,3.2,6.1,3.2
				c0.9,0,1.7-0.4,2.5-1.1c0.8-0.8,1.2-1.6,1.2-2.4c0-1.7-1.9-3.2-5.6-4.5c-2.1-0.7-3.7-1.4-4.6-2.1c-0.9-0.7-1.7-1.6-2.3-2.9
				c-0.6-1.3-0.9-2.5-1-3.9c0-2.9,0.9-5.3,2.9-7.1c2-1.8,4.5-2.8,7.7-2.8C440.7,57.1,443.9,58.2,446.5,60.5z"/>
			<path class="st0" d="M455.6,57.5c9.2,0,13.8,0.1,23,0.2c0,2.8,0,4.2-0.1,7c-3.1,0-4.7,0-7.8-0.1c-0.1,10.3-0.1,15.5-0.2,25.8
				c-2.9,0-4.4,0-7.3,0c0.1-10.3,0.1-15.5,0.1-25.8c-3.1,0-4.7,0-7.8,0C455.6,61.7,455.6,60.3,455.6,57.5z"/>
			<path class="st0" d="M488.7,57.8c4.5,0.1,6.8,0.1,11.2,0.2c3.4,0.1,6.1,1,8.1,2.8s2.9,4.1,2.8,7.1c0,1.7-0.5,3.4-1.5,5.2
				c-0.9,1.8-2.6,3.2-5.1,4.2c3.7,5.5,5.5,8.3,9.2,13.9c-3.3-0.1-5-0.1-8.4-0.2c-3.4-5.2-5.1-7.7-8.5-12.9c-0.3,0-0.5,0-0.8,0
				c-0.1,5.1-0.1,7.6-0.2,12.7c-2.9-0.1-4.4-0.1-7.3-0.1C488.4,79.7,488.6,68.7,488.7,57.8z M496,63.8c-0.1,3.4-0.1,5.1-0.2,8.5
				c0.6,0,1,0,1.6,0c3.8,0.1,5.8-1.4,5.8-4.4c0-1.2-0.5-2.2-1.4-3c-1-0.7-2.4-1.1-4.1-1.2C497.1,63.8,496.7,63.8,496,63.8z"/>
			<path class="st0" d="M524.8,58.6c2.9,0.1,4.4,0.1,7.4,0.2c-0.3,10.9-0.7,21.9-1,32.8c-2.9-0.1-4.4-0.1-7.3-0.2
				C524.2,80.5,524.5,69.5,524.8,58.6z"/>
			<path class="st0" d="M544.4,59.2c7.7,0.3,11.5,0.4,19.2,0.8c-0.1,2.6-0.2,3.9-0.3,6.5c-4.7-0.2-7.1-0.3-11.8-0.5
				c-0.1,2.6-0.2,4-0.3,6.6c4.7,0.2,7.1,0.3,11.8,0.5c-0.1,2.6-0.2,3.8-0.3,6.4c-4.7-0.2-7.1-0.3-11.8-0.5c-0.1,2.7-0.2,4.1-0.3,6.8
				c4.7,0.2,7,0.3,11.7,0.5c-0.1,2.6-0.2,3.9-0.3,6.5c-7.6-0.3-11.4-0.5-19-0.7C543.6,81.1,544,70.1,544.4,59.2z"/>
			<path class="st0" d="M594.2,64.4c-1.9,1.8-2.9,2.7-4.8,4.6c-2.3-1.5-4-2.3-5.1-2.3c-0.8,0-1.5,0.2-2.1,0.8
				c-0.6,0.6-0.9,1.2-1,2.1c-0.1,1.6,1.4,3.1,4.3,4.4c2.2,1,3.8,1.9,4.9,2.7c1.1,0.8,2,1.9,2.7,3.2c0.7,1.4,1,2.8,0.9,4.3
				c-0.2,2.8-1.5,5.2-3.9,7.1c-2.4,2-5.3,2.9-8.4,2.7c-3.5-0.2-6.9-1.9-10.1-5.3c2-2.1,3-3.1,5-5.2c2,2.2,4,3.4,5.9,3.5
				c0.9,0,1.7-0.3,2.6-1c0.8-0.7,1.3-1.5,1.3-2.3c0.1-1.7-1.7-3.3-5.4-4.8c-2.1-0.9-3.6-1.6-4.4-2.3c-0.9-0.7-1.6-1.7-2.1-3
				c-0.6-1.3-0.8-2.6-0.7-3.9c0.1-2.9,1.2-5.2,3.3-7c2.1-1.7,4.7-2.5,7.9-2.3C588.6,60.7,591.7,62,594.2,64.4z"/>
		</g>
	</g>
</g>
</svg>
