<?xml version="1.0" encoding="utf-8"?>
<!-- Generator: Adobe Illustrator 17.0.0, SVG Export Plug-In . SVG Version: 6.00 Build 0)  -->
<!DOCTYPE svg PUBLIC "-//W3C//DTD SVG 1.1//EN" "http://www.w3.org/Graphics/SVG/1.1/DTD/svg11.dtd">
<svg version="1.1" id="Layer_1" xmlns="http://www.w3.org/2000/svg" xmlns:xlink="http://www.w3.org/1999/xlink" x="0px" y="0px"
	 width="1094px" height="209px" viewBox="0 0 1094 209" style="enable-background:new 0 0 1094 209;" xml:space="preserve">
<style type="text/css">
	.st0{fill:#62676C;}
	.st1{fill:#50555B;}
	.st2{fill:#393D42;}
	.st3{fill:none;stroke:#989CA3;stroke-width:3;stroke-linecap:round;stroke-linejoin:round;stroke-miterlimit:10;}
	.st4{fill:#FFF7E4;}
	.st5{fill:#FFFFFF;}
	.st6{fill:#E9EFD7;}
	.st7{fill:#E8ECD5;}
</style>
<g>
	<g>
		<g>
			<g>
				<path class="st0" d="M1055.6,184.3c-61.2-9.5-122.5-17.3-184.1-23.5c2.9-29.4,5.8-58.7,8.7-88.1c63.2,6.4,126.2,14.5,189,24.2
					c-12.3,13.9-24.4,28-36.5,42.1C1040.5,154,1048.1,169.1,1055.6,184.3z"/>
				<path class="st5" d="M1060.4,187.9c-63.7-10-127.7-18.2-191.9-24.6c3.1-31.2,6.1-62.4,9.2-93.5c65.9,6.6,131.6,15,197,25.3
					c-13,14.7-25.9,29.5-38.7,44.4C1044.3,155.5,1052.4,171.6,1060.4,187.9z M874.6,158.3c58.9,6,117.7,13.5,176.2,22.5
					c-7-14.1-14.1-28.2-21.3-42.3c11.4-13.3,22.9-26.6,34.4-39.7c-60.2-9.2-120.5-16.9-181.1-23.1
					C880.1,103.2,877.3,130.8,874.6,158.3z"/>
			</g>
			<g>
				<path class="st0" d="M24.7,96.9c62.8-9.7,125.8-17.8,189-24.2c2.9,29.4,5.8,58.7,8.7,88.1c-61.6,6.2-122.9,14.1-184.1,23.5
					c7.2-17,14.6-34,22-51C48.6,121.1,36.6,109,24.7,96.9z"/>
				<path class="st5" d="M225.5,163.2c-64.1,6.4-127.9,14.6-191.5,24.6c7.6-18,15.3-36,23.2-53.9c-12.7-13.1-25.4-26-38.2-38.9
					c65.6-10.3,131.3-18.7,197.4-25.3C219.3,100.9,222.4,132.1,225.5,163.2z M42.8,180.9c58.7-9,117.5-16.5,176.6-22.5
					c-2.8-27.5-5.5-55.1-8.3-82.6c-60.4,6.2-120.6,13.8-180.7,23c11.1,11.3,22.2,22.6,33.2,34C56.6,148.8,49.7,164.8,42.8,180.9z"/>
			</g>
			<g>
				<path class="st0" d="M986.4,140.5c-288.3-37.9-580-38.4-868.4-1.4c-4.4-33.4-8.7-66.9-13.1-100.3
					C402.2,0.6,702.8,1.1,999.8,40.2C995.4,73.6,990.9,107,986.4,140.5z"/>
				<path class="st5" d="M988.8,143.6c-289.9-38.4-583.2-38.8-873.2-1.4c-4.6-35.2-9.2-70.5-13.9-105.7
					c299.3-38.7,602.1-38.2,901.3,1.4C998.3,73.1,993.6,108.3,988.8,143.6z M120.5,136c286.8-36.5,576.9-36.1,863.6,1.4
					c4.2-31.6,8.4-63.2,12.6-94.9c-295-38.6-593.4-39-888.5-1.4C112.3,72.7,116.4,104.4,120.5,136z"/>
			</g>
		</g>
		<g>
			<path class="st6" d="M247.5,58.7c9.5-0.8,14.3-1.3,23.8-2c0.2,2.9,0.4,4.4,0.6,7.3c-3.2,0.3-4.9,0.4-8.1,0.7
				c0.9,10.8,1.4,16.2,2.3,26.9c-3,0.3-4.5,0.4-7.6,0.6c-0.9-10.8-1.4-16.2-2.3-26.9c-3.2,0.3-4.8,0.4-8,0.7
				C247.9,63.1,247.8,61.6,247.5,58.7z"/>
			<path class="st6" d="M281.9,55.8c3.1-0.2,4.6-0.4,7.6-0.6c0.4,5.3,0.6,7.9,1,13.2c5-0.4,7.5-0.6,12.5-0.9
				c-0.4-5.3-0.6-7.9-1-13.2c3.1-0.2,4.6-0.3,7.6-0.5c0.8,11.4,1.6,22.8,2.4,34.3c-3,0.2-4.5,0.3-7.6,0.5c-0.4-5.4-0.6-8.2-1-13.6
				c-5,0.4-7.5,0.5-12.5,0.9c0.4,5.4,0.6,8.2,1,13.6c-3,0.2-4.5,0.3-7.6,0.6C283.7,78.7,282.8,67.2,281.9,55.8z"/>
			<path class="st6" d="M322.6,52.9c8-0.5,12-0.8,20-1.3c0.2,2.7,0.2,4.1,0.4,6.8c-4.9,0.3-7.4,0.5-12.3,0.8
				c0.2,2.8,0.3,4.1,0.4,6.9c4.9-0.3,7.4-0.5,12.3-0.8c0.2,2.7,0.2,4,0.4,6.7c-4.9,0.3-7.3,0.4-12.2,0.8c0.2,2.8,0.3,4.3,0.5,7.1
				c4.9-0.3,7.3-0.5,12.2-0.8c0.2,2.7,0.2,4.1,0.4,6.8c-7.9,0.5-11.9,0.7-19.8,1.3C324.1,75.7,323.4,64.3,322.6,52.9z"/>
			<path class="st6" d="M372.1,50c2.7-0.1,4.1-0.2,6.8-0.3c2.8,9.2,4.1,13.9,6.8,23.1c1.9-9.5,2.9-14.2,4.8-23.7
				c1.9-0.1,2.9-0.1,4.9-0.2c2.8,9.3,4.1,13.9,6.9,23.2c1.9-9.5,2.9-14.2,4.8-23.7c2.7-0.1,4.1-0.2,6.8-0.3
				c-2.4,11.5-4.8,23.1-7.2,34.7c-2.8,0.1-4.3,0.2-7.1,0.3c-2.4-8.3-3.7-12.5-6.1-20.8c-1.7,8.5-2.5,12.8-4.2,21.3
				c-2.8,0.1-4.3,0.2-7.1,0.3C379,72.5,375.6,61.2,372.1,50z"/>
			<path class="st6" d="M424.3,47.7c8-0.3,12-0.4,20-0.7c0.1,2.7,0.1,4.1,0.2,6.8c-4.9,0.1-7.4,0.2-12.3,0.4
				c0.1,2.8,0.1,4.2,0.2,6.9c4.9-0.2,7.4-0.2,12.3-0.4c0.1,2.7,0.1,4,0.2,6.7c-4.9,0.1-7.4,0.2-12.3,0.4c0.1,2.8,0.1,4.3,0.2,7.1
				c4.9-0.2,7.3-0.2,12.2-0.4c0.1,2.7,0.1,4.1,0.2,6.8c-7.9,0.2-11.9,0.4-19.8,0.7C425.1,70.5,424.7,59.1,424.3,47.7z"/>
			<path class="st6" d="M456.1,46.7c4.8-0.1,7.3-0.2,12.1-0.3c5.2-0.1,9.4,1.4,12.6,4.5c3.2,3.1,4.9,7.2,5,12.4
				c0.1,5.2-1.4,9.4-4.6,12.5c-3.2,3.2-7.4,4.8-12.8,5c-4.5,0.1-6.8,0.2-11.3,0.3C456.7,69.5,456.4,58.1,456.1,46.7z M464,52.9
				c0.2,8.5,0.3,12.7,0.5,21.2c1.2,0,1.8,0,3-0.1c3.1-0.1,5.6-1,7.6-2.7c2-1.7,2.9-4.5,2.8-8.4c0-2.2-0.6-4.2-1.6-5.9
				c-1-1.7-2.4-2.9-4.3-3.4c-1.9-0.6-3.6-0.8-5.3-0.8C465.7,52.9,465.1,52.9,464,52.9z"/>
			<path class="st6" d="M496.8,45.8c4.8-0.1,7.3-0.1,12.1-0.2c5.2-0.1,9.4,1.5,12.5,4.6c3.2,3.1,4.8,7.3,4.8,12.4
				c0,5.2-1.6,9.3-4.8,12.5c-3.2,3.1-7.5,4.7-12.8,4.8c-4.5,0.1-6.8,0.1-11.4,0.1C497.2,68.7,497,57.2,496.8,45.8z M504.6,52.2
				c0.1,8.5,0.2,12.7,0.3,21.2c1.2,0,1.8,0,3,0c3.1,0,5.7-0.9,7.6-2.6c2-1.7,3-4.4,2.9-8.3c0-2.2-0.5-4.2-1.5-6
				c-1-1.7-2.4-2.9-4.3-3.5c-1.9-0.6-3.6-0.9-5.3-0.9C506.3,52.2,505.7,52.2,504.6,52.2z"/>
			<path class="st6" d="M537.3,45.4c3.1,0,4.6,0,7.7,0c0,11.4,0,22.9,0,34.3c-3,0-4.5,0-7.6,0C537.4,68.3,537.3,56.9,537.3,45.4z"/>
			<path class="st6" d="M581.1,45.6c3,0,4.5,0,7.5,0.1c-0.1,11.4-0.3,22.9-0.4,34.3c-3,0-4.4-0.1-7.4-0.1c-6.3-9-9.5-13.4-16-22.4
				c0,8.9-0.1,13.3-0.1,22.2c-3,0-4.5,0-7.6,0c0-11.4,0.1-22.9,0.1-34.3c3,0,4.5,0,7.6,0c6.5,8.9,9.7,13.3,16.1,22.2
				C581,58.8,581,54.4,581.1,45.6z"/>
			<path class="st6" d="M631.3,53.9c-2.1,1.8-3.1,2.7-5.2,4.5c-1-1.8-2.3-3.2-3.8-4.1c-1.5-0.9-3.2-1.4-4.9-1.4
				c-2.8-0.1-5.2,0.9-7.3,2.9c-2.1,2-3.1,4.4-3.2,7.2c-0.1,2.9,0.9,5.5,2.9,7.5s4.4,3.2,7.3,3.2c1.6,0,3.1-0.3,4.5-1.1
				c1.5-0.7,2.6-2.1,3.6-4.2c-3.3-0.1-5-0.1-8.4-0.2c0.1-2.7,0.1-4,0.1-6.7c6.5,0.1,9.8,0.2,16.3,0.4c0,1.8-0.1,2.7-0.1,4.4
				c-0.1,2.3-0.9,4.7-2.6,7.3c-1.7,2.6-3.8,4.4-6.5,5.6c-2.7,1.2-5.3,1.7-8,1.6c-4.9-0.1-8.9-1.9-12.2-5.4
				c-3.3-3.5-4.9-7.8-4.8-12.8c0.1-4.8,1.9-8.9,5.4-12.2c3.5-3.3,7.7-5,12.6-4.9C623.3,45.8,628,48.6,631.3,53.9z"/>
			<path class="st6" d="M665.3,47.5c4.9,0.2,7.3,0.3,12.1,0.4c3.3,0.1,5.9,1.2,7.8,3.1c1.9,1.9,2.8,4.4,2.7,7.4
				c-0.1,2-0.7,3.8-1.7,5.5c-1.1,1.7-2.6,3-4.6,3.8c-2,0.8-3.7,1.2-5.1,1.2c-1.8,0-2.6,0-4.4-0.1c-0.2,5.3-0.3,8-0.5,13.3
				c-3-0.1-4.5-0.2-7.5-0.3C664.5,70.4,664.9,58.9,665.3,47.5z M672.6,53.9c-0.1,3.5-0.2,5.3-0.3,8.8c1.2,0,1.8,0.1,3,0.1
				c1.3,0,2.4-0.4,3.3-1.2c0.9-0.9,1.4-1.9,1.5-3.1c0.1-1.4-0.4-2.5-1.4-3.3c-1-0.8-2.4-1.2-4.3-1.3
				C673.6,53.9,673.3,53.9,672.6,53.9z"/>
			<path class="st6" d="M712.4,49.5c2.4,0.1,3.6,0.2,5.9,0.3c4.2,11.7,8.4,23.3,12.6,35c-3-0.2-4.6-0.2-7.6-0.4
				c-1-2.8-1.5-4.1-2.5-6.9c-5.4-0.3-8.1-0.4-13.5-0.7c-1.2,2.6-1.8,4-3.1,6.6c-3-0.1-4.5-0.2-7.6-0.3
				C701.9,71.9,707.1,60.7,712.4,49.5z M714.8,60.9c-1.9,4-2.8,5.9-4.6,9.9c3.4,0.2,5,0.2,8.4,0.4C717.1,67,716.3,65,714.8,60.9z"/>
			<path class="st6" d="M743.6,51.1c4.7,0.3,7,0.4,11.7,0.7c3.6,0.2,6.3,1.3,8.2,3.2c1.9,1.9,2.8,4.5,2.6,7.5
				c-0.1,1.8-0.7,3.6-1.8,5.4c-1.1,1.8-2.9,3.2-5.5,4.1c3.6,6,5.4,8.9,8.9,14.9c-3.5-0.2-5.2-0.3-8.7-0.6c-3.3-5.5-5-8.3-8.3-13.8
				c-0.3,0-0.5,0-0.9-0.1c-0.3,5.3-0.5,8-0.8,13.3c-3-0.2-4.5-0.3-7.6-0.4C742.3,74,743,62.6,743.6,51.1z M751,57.7
				c-0.2,3.6-0.3,5.4-0.5,8.9c0.7,0,1,0.1,1.6,0.1c4,0.2,6.1-1.2,6.3-4.4c0.1-1.3-0.4-2.3-1.4-3.2c-1-0.8-2.4-1.3-4.2-1.4
				C752,57.8,751.7,57.8,751,57.7z"/>
			<path class="st6" d="M779.1,53.4c9.5,0.7,14.3,1,23.8,1.7c-0.2,2.9-0.3,4.4-0.6,7.3c-3.2-0.2-4.9-0.4-8.1-0.6
				c-0.8,10.8-1.2,16.2-2,27c-3-0.2-4.5-0.3-7.6-0.5c0.8-10.8,1.2-16.2,1.9-27c-3.2-0.2-4.8-0.3-8.1-0.6
				C778.8,57.8,778.9,56.3,779.1,53.4z"/>
			<path class="st6" d="M810.8,55.7c3.4,0.3,5.1,0.4,8.5,0.7c2.3,4.5,3.4,6.7,5.7,11.1c3-4,4.5-6,7.5-10.1c3.4,0.3,5.1,0.4,8.5,0.7
				c-5.1,6.9-7.7,10.3-12.8,17.3c-0.5,6.4-0.8,9.6-1.3,16c-3-0.3-4.5-0.4-7.5-0.6c0.5-6.4,0.8-9.6,1.3-16
				C816.7,67.2,814.7,63.4,810.8,55.7z"/>
		</g>
	</g>
</g>
</svg>
