<?xml version="1.0" encoding="utf-8"?>
<!-- Generator: Adobe Illustrator 17.0.0, SVG Export Plug-In . SVG Version: 6.00 Build 0)  -->
<!DOCTYPE svg PUBLIC "-//W3C//DTD SVG 1.1//EN" "http://www.w3.org/Graphics/SVG/1.1/DTD/svg11.dtd">
<svg version="1.1" id="Layer_1" xmlns="http://www.w3.org/2000/svg" xmlns:xlink="http://www.w3.org/1999/xlink" x="0px" y="0px"
	 width="875px" height="209px" viewBox="0 0 875 209" style="enable-background:new 0 0 875 209;" xml:space="preserve">
<style type="text/css">
	.st0{fill:#62676C;}
	.st1{fill:#50555B;}
	.st2{fill:#393D42;}
	.st3{fill:none;stroke:#989CA3;stroke-width:3;stroke-linecap:round;stroke-linejoin:round;stroke-miterlimit:10;}
	.st4{fill:#FFF7E4;}
	.st5{fill:#FFFFFF;}
	.st6{fill:#E9EFD7;}
	.st7{fill:#E8ECD5;}
</style>
<g>
	<g>
		<g>
			<g>
				<path class="st6" d="M830.8,182.5c-58.5-9-117.1-16.1-176-21.4c2.4-28.1,4.9-56.2,7.3-84.3c60.8,5.4,121.4,12.8,181.8,22.1
					c-11.8,13.3-23.4,26.7-35,40.2C816.3,153.6,823.6,168,830.8,182.5z"/>
				<path class="st5" d="M835.4,185.9c-60.9-9.5-122.1-16.9-183.5-22.4c2.6-29.8,5.1-59.7,7.7-89.5c63.4,5.6,126.6,13.3,189.5,23.1
					c-12.5,14-24.8,28.2-37,42.4C819.9,154.9,827.7,170.4,835.4,185.9z M657.6,158.8c56.4,5.1,112.6,11.9,168.6,20.4
					c-6.7-13.5-13.6-26.9-20.5-40.4c10.9-12.8,21.9-25.4,32.9-38C780.8,92,722.8,85,664.5,79.7C662.2,106.1,659.9,132.4,657.6,158.8
					z"/>
			</g>
			<g>
				<path class="st6" d="M16.3,99c60.4-9.3,120.9-16.6,181.8-22.1c2.4,28.1,4.9,56.2,7.3,84.3c-58.9,5.3-117.6,12.4-176,21.4
					c6.9-16.3,14-32.5,21.1-48.7C39.2,122.1,27.8,110.5,16.3,99z"/>
				<path class="st5" d="M208.3,163.5C147,169,86,176.4,25.1,185.9c7.3-17.2,14.7-34.4,22.2-51.5c-12.1-12.5-24.3-24.9-36.6-37.2
					C73.8,87.4,137,79.6,200.6,74C203.2,103.9,205.7,133.7,208.3,163.5z M33.7,179.2c56.1-8.5,112.4-15.3,168.9-20.5
					c-2.3-26.4-4.6-52.7-7-79.1c-58.1,5.3-116,12.3-173.7,21c10.7,10.8,21.3,21.6,31.8,32.6C46.9,148.5,40.2,163.9,33.7,179.2z"/>
			</g>
			<g>
				<path class="st6" d="M764.5,140.8c-218.9-27.5-439.7-27.9-658.7-1.3c-4-32-8-64-11.9-95.9c227-27.7,456.1-27.2,683,1.3
					C772.7,76.9,768.6,108.8,764.5,140.8z"/>
				<path class="st5" d="M766.8,143.7c-220.4-27.9-442.8-28.4-663.3-1.3C99.2,108.7,95,75,90.7,41.3c229-28.2,460.2-27.7,689.1,1.3
					C775.5,76.3,771.1,110,766.8,143.7z M108.1,136.6c217.4-26.3,436.7-25.8,654.1,1.3c3.9-30.2,7.7-60.5,11.6-90.7
					C548.8,19.1,321.9,18.6,96.9,45.8C100.6,76.1,104.3,106.3,108.1,136.6z"/>
			</g>
		</g>
		<g>
			<path class="st0" d="M220,64.7c2.6-0.2,3.9-0.3,6.5-0.5c2.9,8.8,4.3,13.1,7.1,21.9c1.6-9.1,2.4-13.6,4.1-22.7
				c1.9-0.1,2.8-0.2,4.7-0.3c2.9,8.8,4.3,13.2,7.2,22c1.6-9.1,2.4-13.7,4.1-22.8c2.6-0.2,3.9-0.3,6.5-0.4c-2,11.1-4.1,22.2-6.1,33.3
				c-2.7,0.2-4.1,0.3-6.8,0.5c-2.5-7.9-3.8-11.8-6.4-19.7c-1.4,8.2-2.1,12.3-3.5,20.4c-2.7,0.2-4.1,0.3-6.8,0.5
				C227.1,86.1,223.5,75.4,220,64.7z"/>
			<path class="st0" d="M269.9,61.3c2.9-0.2,4.4-0.3,7.4-0.4c0.3,5.1,0.4,7.6,0.7,12.6c4.8-0.3,7.2-0.4,12-0.7
				c-0.3-5.1-0.4-7.6-0.7-12.6c2.9-0.2,4.4-0.2,7.4-0.4c0.5,10.9,1.1,21.9,1.6,32.8c-2.9,0.1-4.4,0.2-7.3,0.4
				c-0.3-5.2-0.4-7.8-0.7-13c-4.8,0.3-7.2,0.4-12,0.7c0.3,5.2,0.4,7.8,0.7,13c-2.9,0.2-4.4,0.3-7.3,0.4
				C271.2,83.1,270.6,72.2,269.9,61.3z"/>
			<path class="st0" d="M309.1,59.2c7.7-0.3,11.5-0.5,19.2-0.8c0.1,2.6,0.1,3.9,0.2,6.5c-4.7,0.2-7.1,0.3-11.8,0.5
				c0.1,2.6,0.2,4,0.3,6.6c4.7-0.2,7.1-0.3,11.8-0.5c0.1,2.6,0.1,3.8,0.2,6.4c-4.7,0.2-7.1,0.3-11.8,0.5c0.1,2.7,0.2,4.1,0.3,6.8
				c4.7-0.2,7-0.3,11.7-0.5c0.1,2.6,0.1,3.9,0.2,6.5c-7.6,0.3-11.4,0.4-19,0.8C310.1,81.1,309.6,70.2,309.1,59.2z"/>
			<path class="st0" d="M362.5,57.4c2.9-0.1,4.3-0.1,7.2-0.2c0.2,10.9,0.5,21.9,0.7,32.8c-2.8,0.1-4.2,0.1-7.1,0.2
				c-6.4-8.3-9.6-12.5-16.1-20.8c0.3,8.5,0.4,12.7,0.7,21.2c-2.9,0.1-4.4,0.1-7.3,0.2c-0.4-10.9-0.7-21.9-1.1-32.8
				c2.9-0.1,4.4-0.1,7.3-0.2c6.5,8.2,9.8,12.4,16.2,20.6C362.8,70,362.7,65.8,362.5,57.4z"/>
			<path class="st0" d="M416.1,73.2c1.8,2.1,2.8,3.1,4.6,5.2c1.5-1.4,2.2-2.1,3.7-3.5c1.4,1.6,2.1,2.4,3.4,3.9
				c-0.1,0.1-0.6,0.7-1.7,1.8c-1.1,1.1-1.7,1.6-1.9,1.7c2.5,2.8,3.7,4.2,6.2,7c-3.3,0-4.9,0-8.2,0c-1.1-1.2-1.7-1.9-2.8-3.1
				c-2.6,1.5-4.5,2.5-5.7,2.9c-1.2,0.5-2.4,0.7-3.6,0.7c-1.4,0-2.9-0.3-4.4-0.8c-1.5-0.6-2.7-1.5-3.6-2.9c-0.9-1.3-1.3-2.8-1.4-4.4
				c0-3.6,7-8.4,7.1-9c0.1-0.7-3.2-4.9-3.3-7.4c0-2,0.8-3.8,2.5-5.3c1.7-1.5,3.7-2.3,6.1-2.3c2.5,0,4.6,0.7,6.3,2.2
				c1.7,1.5,2.5,3.2,2.5,5.4c0,1.8-0.7,3.3-2.1,4.7C418.4,71.4,417.2,72.5,416.1,73.2z M413.3,79.5c-0.1-0.1-0.4-0.5-1-1.1
				c-0.5-0.6-1.2-1.4-1.3-1.4c-0.8,0-2.8,3.1-2.8,4.6c0,0.7,0.3,1.3,0.9,1.8c0.6,0.5,1.2,0.8,2,0.8c1.1,0,2.6-0.7,4.6-2
				C414.8,81.1,414.3,80.5,413.3,79.5z M412.9,69.5c0.8,0.1,3.2-3.1,3.2-4.5c0-0.8-0.3-1.4-0.8-1.9c-0.5-0.5-1.2-0.7-2-0.7
				c-0.8,0-1.4,0.3-1.9,0.8c-0.5,0.5-0.7,1.2-0.7,2C410.7,66.2,412.3,69.4,412.9,69.5z"/>
			<path class="st0" d="M457.3,56.7c2.6,0,3.9,0,6.6,0.1c2.1,9,3.1,13.5,5.2,22.4c2.4-8.9,3.6-13.4,6.1-22.3c1.9,0,2.8,0,4.7,0.1
				c2.1,9,3.1,13.5,5.2,22.6c2.4-8.9,3.6-13.4,6.1-22.3c2.6,0.1,3.9,0.1,6.6,0.2c-3,10.9-6,21.7-9,32.6c-2.7-0.1-4.1-0.1-6.8-0.1
				c-1.8-8.1-2.7-12.1-4.6-20.2c-2.1,8-3.2,12-5.3,20c-2.7,0-4.1-0.1-6.8-0.1C462.5,78.6,459.9,67.6,457.3,56.7z"/>
			<path class="st0" d="M507.4,57.6c2.9,0.1,4.4,0.1,7.4,0.2c-0.2,5.1-0.2,7.6-0.4,12.6c4.8,0.2,7.2,0.2,12,0.4
				c0.2-5.1,0.3-7.6,0.5-12.6c2.9,0.1,4.4,0.2,7.4,0.3c-0.4,10.9-0.8,21.9-1.3,32.8c-2.9-0.1-4.4-0.2-7.3-0.3
				c0.2-5.2,0.3-7.8,0.5-13c-4.8-0.2-7.2-0.3-12-0.4c-0.2,5.2-0.2,7.8-0.4,13c-2.9-0.1-4.4-0.1-7.3-0.2
				C506.8,79.5,507.1,68.6,507.4,57.6z"/>
			<path class="st0" d="M546.6,59c7.7,0.3,11.5,0.5,19.2,0.9c-0.1,2.6-0.2,3.9-0.3,6.5c-4.7-0.2-7.1-0.4-11.8-0.6
				c-0.1,2.6-0.2,4-0.3,6.6c4.7,0.2,7.1,0.3,11.8,0.6c-0.1,2.6-0.2,3.8-0.3,6.4c-4.7-0.2-7.1-0.4-11.8-0.6c-0.1,2.7-0.2,4.1-0.3,6.8
				c4.7,0.2,7,0.3,11.7,0.6c-0.1,2.6-0.2,3.9-0.3,6.5c-7.6-0.4-11.4-0.6-19-0.9C545.7,80.9,546.2,70,546.6,59z"/>
			<path class="st0" d="M577.3,60.6c4.5,0.2,6.7,0.4,11.2,0.6c3.4,0.2,6.1,1.2,7.9,3.1c1.9,1.9,2.7,4.2,2.5,7.2
				c-0.1,1.7-0.7,3.4-1.7,5.2c-1,1.8-2.8,3.1-5.3,4c3.5,5.7,5.2,8.5,8.6,14.2c-3.3-0.2-5-0.3-8.3-0.5c-3.2-5.3-4.8-7.9-8-13.2
				c-0.3,0-0.5,0-0.8,0c-0.3,5.1-0.4,7.6-0.7,12.7c-2.9-0.2-4.4-0.2-7.3-0.4C576.1,82.4,576.7,71.5,577.3,60.6z M584.4,66.8
				c-0.2,3.4-0.3,5.1-0.5,8.5c0.6,0,0.9,0.1,1.6,0.1c3.8,0.2,5.8-1.2,6-4.2c0.1-1.2-0.4-2.2-1.3-3c-1-0.8-2.3-1.2-4.1-1.3
				C585.4,66.9,585.1,66.8,584.4,66.8z"/>
			<path class="st0" d="M613.8,62.8c7.7,0.5,11.5,0.8,19.2,1.4c-0.2,2.6-0.3,3.9-0.5,6.5c-4.7-0.4-7.1-0.5-11.8-0.9
				c-0.2,2.6-0.3,4-0.5,6.6c4.7,0.3,7.1,0.5,11.8,0.9c-0.2,2.6-0.3,3.8-0.5,6.4c-4.7-0.4-7.1-0.5-11.8-0.9c-0.2,2.7-0.3,4.1-0.5,6.8
				c4.7,0.3,7,0.5,11.7,0.9c-0.2,2.6-0.3,3.9-0.5,6.5c-7.6-0.6-11.4-0.8-19-1.4C612.3,84.6,613,73.7,613.8,62.8z"/>
		</g>
	</g>
</g>
</svg>
