<?xml version="1.0" encoding="utf-8"?>
<!-- Generator: Adobe Illustrator 15.1.0, SVG Export Plug-In . SVG Version: 6.00 Build 0)  -->
<!DOCTYPE svg PUBLIC "-//W3C//DTD SVG 1.1//EN" "http://www.w3.org/Graphics/SVG/1.1/DTD/svg11.dtd">
<svg version="1.1" id="Layer_1" xmlns="http://www.w3.org/2000/svg" xmlns:xlink="http://www.w3.org/1999/xlink" x="0px" y="0px"
	 width="577.6px" height="990.1px" viewBox="0 0 577.6 990.1" style="enable-background:new 0 0 577.6 990.1;" xml:space="preserve"
	>
<style type="text/css">
<![CDATA[
	.st0{fill:#63676C;}
	.st1{fill:#CCD3B0;}
	.st2{clip-path:url(#SVGID_2_);fill:#FFFFFF;}
	.st3{clip-path:url(#SVGID_2_);fill:#63676C;}
]]>
</style>
<polygon class="st1" points="274.7,34.8 216.4,0 217.4,2.1 233.2,96.2 265.5,133.8 265.5,892.6 218.7,892.6 275,990.1 331.3,892.6 
	284.1,892.6 284.1,134.6 316.9,96.2 333.7,0 "/>
<polygon class="st0" points="0.4,781.3 257.6,841.5 257.6,834.6 7.1,776 7.1,626 488.2,732.1 425.4,790.8 421.9,794.1 423.9,798.5 
	463.4,882.7 291,842.4 291,849.3 475.3,892.4 430,795.7 502,728.3 0.4,617.7 "/>
<polygon class="st0" points="148.1,150.8 76,218.2 577.6,328.8 577.6,165.2 320.5,105.1 315.6,110.9 570.9,170.5 570.9,320.5 
	89.8,214.4 152.6,155.7 156.2,152.4 154.1,148 114.6,63.8 223.3,89.3 222.1,82 102.7,54.1 "/>
<polygon class="st0" points="0,327.3 0,491.1 577.6,327.3 577.6,163.4 "/>
<polygon class="st0" points="0,618.5 0,782.4 577.6,618.5 577.6,454.7 "/>
<path class="st0" d="M6.7,485.1V334.9L570.9,460V610L6.7,485.1z M0,490.5l577.6,127.8V454.7L0,326.6V490.5z"/>
<g>
	<defs>
		<rect id="SVGID_1_" width="577.6" height="990.1"/>
	</defs>
	<clipPath id="SVGID_2_">
		<use xlink:href="#SVGID_1_"  style="overflow:visible;"/>
	</clipPath>
	<path class="st2" d="M130.9,704.7c0,0.9-0.6,1.8-1.5,2l-13.2,3.9c-0.9,0.3-1.7-0.2-1.7-1.1l-1.1-28.4l-8,31.3
		c-0.3,0.9-1.1,1.9-2,2.2l-9,2.6c-0.9,0.3-1.7-0.3-2.2-1l-9.2-26.3l0.1,28.7c0,0.9-0.6,1.8-1.5,2l-13.3,3.9
		c-0.8,0.2-1.6-0.2-1.6-1.1l1.4-76.2l0-0.3c0.1-0.5,0.3-0.9,0.6-1.2c0.1,0,0.1,0,0.2-0.2c0.1,0,0.2-0.1,0.3-0.2l14.2-4.2
		c0.9-0.3,1.4,0.2,1.7,1l11,40.6l1.4,9.1l0.7-9.7l10.8-46.9c0.2-1.1,0.8-1.7,1.6-2l14.2-4.2c0.1,0.1,0.2,0,0.3,0
		c0,0.1,0.1,0.1,0.1,0.1c0.3,0.1,0.6,0.4,0.7,0.8l0,0.2c0,0,0.1,0,0.1,0.1L130.9,704.7z"/>
	<path class="st2" d="M199.9,684.5c0.2,0.7-0.7,1.8-1.6,2.1l-12.8,3.7c-0.9,0.3-1.7-0.3-2.1-1l-2.9-8.3l-22.5,6.6l-2.5,9.9
		c-0.3,0.9-1.1,1.9-2,2.2l-12.8,3.7c-0.9,0.3-1.9-0.2-1.7-1.1l20.5-82l0-0.1c0.4-1.1,0.8-1.8,1.5-2l4.9-1.4l3.5-1l4.9-1.4
		c0.8-0.2,1.2,0.2,1.6,1.1l0,0.1C184,638.4,192,661.5,199.9,684.5 M175.8,667.1l-7.2-21.1l-6.3,25.1L175.8,667.1z"/>
	<path class="st2" d="M255.5,592.5l0.3,13.3c0,0.9-0.7,1.8-1.6,2.1L240,612l1.3,60.6c-0.1,0.8-0.8,1.6-1.5,1.8l-13.2,3.9
		c-0.8,0.2-1.5-0.1-1.6-0.9l-1.3-60.7l-14.2,4.2c-0.9,0.3-1.7-0.2-1.7-1.1l-0.3-13.3c0-0.9,0.7-1.9,1.6-2.2l44.8-13.1
		C254.7,591,255.5,591.6,255.5,592.5"/>
	<path class="st2" d="M314.9,575.2l0.3,13.3c0,0.9-0.7,1.8-1.6,2.1l-14.2,4.2l1.3,60.7c-0.1,0.8-0.8,1.6-1.5,1.8l-13.2,3.9
		c-0.8,0.2-1.5-0.1-1.6-0.9l-1.3-60.6l-14.2,4.2c-0.9,0.3-1.7-0.2-1.7-1.1l-0.3-13.3c0-0.9,0.7-1.9,1.6-2.2l44.8-13.1
		C314.1,573.7,314.9,574.3,314.9,575.2"/>
	<path class="st2" d="M376.6,556.8l1.7,75.6c0,0.9-0.6,1.8-1.5,2l-13.3,3.9c-0.8,0.2-1.6-0.2-1.6-1.1l-0.7-29.5l-16.8,4.9l0.7,29.5
		c0,0.9-0.8,1.8-1.5,2l-13.3,3.9c-0.9,0.3-1.6-0.2-1.6-1.1l-1.7-75.6c0-0.9,0.6-1.8,1.5-2l13.3-3.9c0.8-0.2,1.6,0.2,1.6,1.1
		l0.7,29.5l16.8-4.9l-0.7-29.5c0-0.9,0.7-1.8,1.5-2l13.3-3.9C375.9,555.5,376.6,555.9,376.6,556.8"/>
	<path class="st2" d="M406.6,577.8l19.8-5.8c0.9-0.3,1.6,0.2,1.6,1.1l0.3,13.4c0,0.9-0.6,1.8-1.5,2l-19.8,5.8l0.3,14.5l25.9-7.6
		c0.8-0.2,1.6,0.2,1.6,1.1l0.3,13.4c0,0.9-0.7,1.8-1.5,2l-40.8,11.9c-0.9,0.3-1.6-0.2-1.6-1.1l-1.7-75.6c0-0.9,0.6-1.8,1.5-2
		l40.8-11.9c0.8-0.2,1.6,0.2,1.6,1.1l0.3,13.4c0,0.9-0.7,1.8-1.5,2l-25.9,7.6L406.6,577.8z"/>
	<path class="st2" d="M504.1,595.6l0,0.3c-0.1,0.5-0.3,0.9-0.7,1.2c-0.1,0-0.1,0.1-0.2,0.2c0,0-0.1,0.1-0.3,0.2c0,0-0.1,0.1-0.2,0.2
		l-14,4.1c-0.8,0.2-1.4-0.3-1.6-1.1l-8.5-26.1l-0.9-5.4l-0.5,5.8l-8.1,31c-0.3,1.1-0.7,1.8-1.6,2.1l-14,4.1c-0.1,0-0.1-0.1-0.2,0
		c-0.1,0-0.2,0-0.3,0c-0.1,0-0.1-0.1-0.1-0.1c-0.5-0.1-0.7-0.4-0.7-0.8c-0.1,0-0.1-0.1-0.1-0.1l0-0.2l-7.6-73.6c0-0.8,0.6-1.8,1.5-2
		l13.2-3.9c0.9-0.3,1.7,0.3,1.7,1.1l3.5,37.5l6-19.3c0.3-0.9,1.1-1.9,2-2.2l9-2.6c0.9-0.3,1.7,0.3,2.2,1l6.7,15.6l2-39.1
		c0-0.8,0.6-1.8,1.5-2l13.3-3.9c0.8-0.2,1.6,0.3,1.6,1.1L504.1,595.6z"/>
	<path class="st2" d="M130.9,416.5c0,0.9-0.6,1.8-1.5,2l-13.2,3.9c-0.9,0.3-1.7-0.2-1.7-1.1l-1.1-28.4l-8,31.3
		c-0.3,0.9-1.1,1.9-2,2.2l-9,2.6c-0.9,0.3-1.7-0.3-2.2-1l-9.2-26.3l0.1,28.7c0,0.9-0.6,1.8-1.5,2l-13.3,3.9
		c-0.8,0.2-1.6-0.2-1.6-1.1l1.4-76.2l0-0.3c0.1-0.5,0.3-0.9,0.6-1.2c0.1,0,0.1,0,0.2-0.2c0.1,0,0.2-0.1,0.3-0.2l14.2-4.2
		c0.9-0.3,1.4,0.2,1.7,1l11,40.6l1.4,9.1l0.7-9.7l10.8-46.9c0.2-1.1,0.8-1.7,1.6-2l14.2-4.2c0.1,0.1,0.2,0,0.3,0
		c0,0.1,0.1,0.1,0.1,0.1c0.3,0.1,0.6,0.4,0.7,0.8l0,0.2c0,0,0.1,0,0.1,0.1L130.9,416.5z"/>
	<path class="st2" d="M199.9,396.4c0.2,0.7-0.7,1.8-1.6,2.1l-12.8,3.7c-0.9,0.3-1.7-0.3-2.1-1l-2.9-8.3l-22.5,6.6l-2.5,9.9
		c-0.3,0.9-1.1,1.9-2,2.2l-12.8,3.7c-0.9,0.3-1.9-0.2-1.7-1.1l20.5-82l0-0.1c0.4-1.1,0.8-1.8,1.5-2l4.9-1.4l3.5-1l4.9-1.4
		c0.8-0.2,1.2,0.2,1.6,1.1l0,0.1C184,350.3,192,373.4,199.9,396.4 M175.8,378.9l-7.2-21.1l-6.3,25.1L175.8,378.9z"/>
	<path class="st2" d="M257.9,366l0.3,13.4c0,0.9-0.8,1.8-1.6,2.1l-44.8,13.1c-0.9,0.3-1.7-0.2-1.7-1.1l-1.7-75.6l0.1,0
		c0.1-0.7,0.8-1.5,1.5-1.7l13.2-3.9c0.8-0.2,1.5,0.1,1.6,0.8l1.3,60.6l30-8.8C257.1,364.6,257.9,365.2,257.9,366"/>
	<path class="st2" d="M319.1,348.1l0.3,13.4c0,0.9-0.8,1.8-1.6,2.1l-44.8,13.1c-0.9,0.3-1.7-0.2-1.7-1.1l-1.7-75.6l0.1,0
		c0.1-0.7,0.8-1.5,1.5-1.7l13.2-3.9c0.8-0.2,1.5,0.1,1.6,0.8l1.3,60.6l30-8.8C318.3,346.8,319.1,347.3,319.1,348.1"/>
	<path class="st2" d="M381.1,334.6c0,0,0.3,1.5-1.1,3.3l-6.2,8.2c-1.3,1.7-2.8,2.1-2.8,2.1l-29,8.5c0,0-1.6,0.6-2.9-0.4l-6.4-4.5
		c-1.4-1-1.3-2.6-1.3-2.6l-1.3-57.8c0,0-0.1-1.5,1.2-3.3l6.1-8.1c1.3-1.9,2.9-2.1,2.9-2.1l28.9-8.4c0,0,1.6-0.7,2.9,0.4l6.5,4.4
		c1.4,1,1.2,2.6,1.2,2.6L381.1,334.6z M349.6,291.7c-0.1,0-0.4,0.1-0.7,0.5l-1.9,2.4c-0.3,0.5-0.3,1-0.3,1l0.9,40.2
		c0,0.2,0.1,0.4,0.4,0.7l1.6,1.1l13-3.8l1.5-2c0.3-0.4,0.3-0.7,0.3-0.9l-0.9-40.2c0,0,0.1-0.5-0.4-0.8l-1.8-1.3
		c-0.3-0.2-0.7-0.1-0.8-0.1L349.6,291.7z"/>
	<path class="st2" d="M440.3,288.1c0,0,0.3,1.5-1.1,3.3l-6.2,8.3l-0.3,0.3l12.1,25c0.2,0.7-0.7,1.8-1.5,2l-15,4.4
		c-0.9,0.3-1.7-0.3-2.1-1l-11.6-24.2l-5.2,1.5l0.6,27.4c0,0.8-0.6,1.8-1.5,2l-13.3,3.9c-0.8,0.2-1.6-0.3-1.6-1.1l-1.7-75.6
		c0-0.9,0.7-1.8,1.5-2l35.6-10.4c0,0,1.6-0.7,2.9,0.3l6.5,4.6c1.4,1,1.2,2.8,1.2,2.8L440.3,288.1z M409,291.1l11.8-3.4
		c0.1,0,0.4-0.1,0.8-0.6l1.8-2.3c0.4-0.6,0.3-1,0.3-1l-0.2-10.6c0,0,0.1-0.5-0.4-0.8l-1.8-1.3c-0.5-0.3-0.9-0.1-0.9-0.1l-11.7,3.4
		L409,291.1z"/>
	<path class="st2" d="M509,230.5c-0.2,0.5-0.3,0.9-0.5,1.2L489,277.2l0.8,34.6c0,0.9-0.6,1.8-1.5,2l-13.3,3.9
		c-0.8,0.2-1.6-0.2-1.6-1.1l-0.8-34.6l-21.2-33.7c-0.1-0.2-0.3-0.5-0.5-0.9c-0.4-0.7,0.6-1.8,1.5-2l14.5-4.2c0.9-0.3,1.7,0.3,2.1,1
		l11.5,18.8l10.4-25.2c0.4-0.9,1.2-1.9,2.1-2.2l14.3-4.2C508.1,229.2,509.2,229.7,509,230.5"/>
	<path class="st3" d="M263.8,463.3v-21.2c0-1.1,0.9-2.1,2.1-2.1h18c1.2,0,2.3,1.1,2.3,2.1v21.2h21.3c1.1,0.2,1.8,1.1,1.8,2.1v18.1
		c0,1.1-0.8,1.8-1.8,2v0.2h-21.3V507H286c-0.2,1.1-0.9,2-2.1,2h-18c-1.1,0-2-0.9-2.1-2v-21.3h-21.2c-1.2,0-2.1-1.1-2.1-2.1v-18.1
		c0-1.2,0.9-2.1,2.1-2.1H263.8z"/>
</g>
</svg>
